<svg width="432" height="430" viewBox="0 0 432 430" fill="none" xmlns="http://www.w3.org/2000/svg">
<path d="M382.239 41.7326C382.239 41.7326 358.548 32.35 305.93 84.7412C305.93 84.7412 251.153 131.62 280.433 151.314C305.351 168.075 338.235 144.073 355.601 128.36C365.528 119.111 374.335 108.737 381.841 97.452C393.833 78.9964 400.97 54.6154 382.239 41.7326Z" fill="#FDB704"/>
<path opacity="0.4" d="M382.239 41.7326C382.239 41.7326 358.548 32.35 305.93 84.7412C305.93 84.7412 251.153 131.62 280.433 151.314C305.351 168.075 338.235 144.073 355.601 128.36C365.528 119.111 374.335 108.737 381.841 97.452C393.833 78.9964 400.97 54.6154 382.239 41.7326Z" fill="black"/>
<path d="M380.442 41.0617C380.442 41.0617 351.066 24.8765 298.362 77.2677C298.362 77.2677 247.472 131.267 278.49 148.183C299.735 159.776 330.692 136.599 348.059 120.887C357.183 112.657 369.451 99.7567 376.156 89.4367C388.174 70.9725 394.81 50.1691 380.442 41.0617Z" fill="#FDB704"/>
<path opacity="0.2" d="M344.933 110.844C367.928 87.9556 379.296 62.1616 370.324 53.2313C361.352 44.301 335.438 55.6162 312.444 78.5044C289.449 101.393 278.081 127.187 287.053 136.117C296.025 145.047 321.939 133.732 344.933 110.844Z" fill="white"/>
<path d="M359.006 68.857L351.61 76.2272L349.7 74.3266L356.906 67.18L353.165 63.4648L345.475 71.1188L342.538 68.2034L303.485 107.075L305.464 109.045L297.523 116.449L301.843 120.749L309.619 113.009L310.829 114.213L303.278 121.73L307.416 125.849L316.298 117.069C316.298 117.069 319.53 120.423 330.666 110.937C339.151 103.713 337.406 96.721 337.406 96.721C337.406 96.721 341.657 97.2284 347.955 92.2662C351.814 89.0788 354.473 84.6826 355.498 79.7962L362.755 72.5808L359.006 68.857ZM326.804 106.026C320.514 111.384 315.27 104.306 315.27 104.306L324.938 94.6742C324.938 94.6742 333.103 100.677 326.804 106.026ZM342.158 89.6862C336.11 94.6484 332.654 87.5964 332.654 87.5964L340.991 79.2888C340.991 79.2888 349.13 84.0016 342.158 89.712V89.6862Z" fill="#FDB704"/>
<path opacity="0.4" d="M359.006 68.857L351.61 76.2272L349.7 74.3266L356.906 67.18L353.165 63.4648L345.475 71.1188L342.538 68.2034L303.485 107.075L305.464 109.045L297.523 116.449L301.843 120.749L309.619 113.009L310.829 114.213L303.278 121.73L307.416 125.849L316.298 117.069C316.298 117.069 319.53 120.423 330.666 110.937C339.151 103.713 337.406 96.721 337.406 96.721C337.406 96.721 341.657 97.2284 347.955 92.2662C351.814 89.0788 354.473 84.6826 355.498 79.7962L362.755 72.5808L359.006 68.857ZM326.804 106.026C320.514 111.384 315.27 104.306 315.27 104.306L324.938 94.6742C324.938 94.6742 333.103 100.677 326.804 106.026ZM342.158 89.6862C336.11 94.6484 332.654 87.5964 332.654 87.5964L340.991 79.2888C340.991 79.2888 349.13 84.0016 342.158 89.712V89.6862Z" fill="black"/>
<path d="M355.014 66.81L347.609 74.1716L345.709 72.2796L352.889 65.133L349.13 61.4092L341.441 69.0718L338.512 66.1564L299.459 105.02L301.437 106.989L293.489 114.402L297.809 118.702L305.585 110.962L306.794 112.166L299.243 119.674L303.39 123.794L312.255 114.97C312.255 114.97 315.477 118.324 326.614 108.847C335.099 101.623 333.353 94.631 333.353 94.631C333.353 94.631 337.604 95.1384 343.903 90.1762C347.761 86.9864 350.422 82.5917 351.454 77.7062L358.703 70.4822L355.014 66.81ZM322.813 103.979C316.514 109.328 311.27 102.259 311.27 102.259L320.972 92.6014C320.972 92.6014 329.103 98.63 322.813 103.979ZM338.157 87.6392C332.109 92.6014 328.653 85.5494 328.653 85.5494L337.034 77.2676C337.034 77.2676 345.095 81.9546 338.157 87.665V87.6392Z" fill="#FDB704"/>
<path d="M377.055 39.8483C377.055 39.9859 374.765 39.5215 370.627 39.3323C364.785 39.1103 358.943 39.7419 353.286 41.2071C349.382 42.2046 345.565 43.5131 341.873 45.1201C337.639 46.9794 333.555 49.1587 329.656 51.6389C321.37 56.7989 313.093 63.7649 304.79 71.4189C288.071 86.6065 276.632 104.159 271.655 117.997C269.202 124.928 268.7 131 269.383 135.042L269.599 136.469L269.91 137.708C270.005 138.095 270.1 138.447 270.178 138.774C270.256 139.101 270.394 139.368 270.48 139.634C270.705 140.145 270.873 140.678 270.981 141.225C270.679 140.754 270.427 140.252 270.23 139.729C270.117 139.479 269.979 139.204 269.858 138.869C269.737 138.533 269.651 138.189 269.53 137.811C269.409 137.433 269.271 137.011 269.15 136.564C269.029 136.117 268.96 135.627 268.865 135.111C268.001 131.008 268.372 124.791 270.757 117.678C275.569 103.557 287.009 85.7551 303.874 70.4213C312.203 62.7329 320.575 55.8013 328.999 50.5725C332.964 48.0812 337.121 45.9072 341.432 44.0709C345.195 42.4799 349.085 41.2055 353.061 40.2611C358.814 38.8554 364.753 38.3563 370.661 38.7819C371.707 38.8421 372.622 38.9711 373.426 39.0829C374.099 39.1607 374.768 39.2727 375.43 39.4183C375.985 39.5066 376.529 39.6507 377.055 39.8483Z" fill="#FAFAFA"/>
<path opacity="0.4" d="M285.868 134.664C285.868 134.664 270.238 115.744 309.481 75.7113C348.724 35.6783 370.324 53.2309 370.324 53.2309C370.324 53.2309 352.422 38.7743 311.27 79.5211C275.44 115.005 285.868 134.664 285.868 134.664Z" fill="black"/>
<path d="M349.994 61.4092C349.385 62.2493 348.674 63.0118 347.877 63.6796C346.452 65.0642 344.361 67.0336 341.769 69.4416L341.397 69.7856L341.052 69.3814L338.762 66.6036H339.626C335.652 70.6284 330.779 75.5132 325.482 80.742C318.57 87.5532 312.281 93.642 307.675 98.0452C305.369 100.238 303.485 101.993 302.172 103.205C301.533 103.869 300.81 104.448 300.02 104.925C300.522 104.146 301.12 103.432 301.8 102.801C303.01 101.494 304.781 99.6362 306.984 97.3658C311.417 92.8164 317.611 86.59 324.515 79.7788C329.811 74.55 334.745 69.734 338.823 65.8124L339.272 65.3824L339.643 65.8554L341.838 68.7966L341.121 68.745C343.799 66.4316 345.985 64.574 347.523 63.3098C348.27 62.5832 349.099 61.9454 349.994 61.4092Z" fill="#FAFAFA"/>
<path d="M339.194 87.2436C339.324 87.364 339.194 87.794 338.676 88.3014C338.015 88.9503 337.201 89.4235 336.308 89.6774C335.42 89.9432 334.478 89.9846 333.57 89.7978C332.878 89.6344 332.515 89.3592 332.55 89.1872C332.645 88.8174 334.192 88.9206 335.928 88.3874C337.665 87.8542 338.918 86.977 339.194 87.2436Z" fill="#FAFAFA"/>
<path d="M320.886 105.372C320.99 105.519 320.834 105.845 320.411 106.232C319.84 106.659 319.169 106.935 318.462 107.033C317.754 107.13 317.033 107.047 316.367 106.791C315.866 106.576 315.624 106.301 315.685 106.129C315.823 105.777 316.963 105.897 318.277 105.699C319.59 105.501 320.618 105.071 320.886 105.372Z" fill="#FAFAFA"/>
<path d="M354.573 101.924C354.85 102.147 351.886 106.095 347.35 110.128C342.814 114.162 338.563 116.673 338.365 116.38C338.166 116.088 342.002 113.104 346.452 109.131C350.901 105.157 354.314 101.674 354.573 101.924Z" fill="#FAFAFA"/>
<path d="M305.835 156.516C305.754 156.451 305.681 156.376 305.619 156.293L305.066 155.656C304.608 155.089 303.978 154.298 303.338 153.412C302.46 152.379 301.692 151.258 301.049 150.066C302.047 150.984 302.935 152.014 303.692 153.137C304.997 154.882 306.017 156.422 305.835 156.516Z" fill="#263238"/>
<path d="M293.1 156.516C293.031 156.465 292.97 156.404 292.918 156.336L292.46 155.811C292.089 155.364 291.596 154.728 291.035 154.022C290.316 153.2 289.707 152.29 289.22 151.313C290.059 152.015 290.789 152.835 291.389 153.747C292.478 155.166 293.29 156.422 293.1 156.516Z" fill="#263238"/>
<path d="M316.298 153.816C315.237 152.767 314.285 151.615 313.456 150.376C312.509 149.229 311.681 147.99 310.985 146.678C312.039 147.731 312.988 148.883 313.819 150.118C314.766 151.266 315.596 152.505 316.298 153.816Z" fill="#263238"/>
<path d="M325.949 149.576C324.823 148.451 323.81 147.218 322.925 145.896C321.914 144.665 321.02 143.344 320.255 141.948C321.379 143.077 322.391 144.309 323.279 145.629C324.287 146.862 325.181 148.183 325.949 149.576Z" fill="#263238"/>
<path d="M335.928 143.289C334.803 142.16 333.788 140.928 332.896 139.608C331.884 138.377 330.993 137.052 330.234 135.652C331.354 136.788 332.366 138.023 333.258 139.342C334.269 140.573 335.162 141.894 335.928 143.289Z" fill="#263238"/>
<path d="M344.888 136.624C343.76 135.497 342.745 134.265 341.855 132.943C340.845 131.715 339.954 130.393 339.194 128.996C340.315 130.127 341.327 131.359 342.218 132.677C343.228 133.908 344.122 135.229 344.888 136.624Z" fill="#263238"/>
<path d="M353.848 129.959C352.72 128.832 351.704 127.6 350.815 126.278C349.804 125.05 348.913 123.728 348.154 122.331C349.274 123.462 350.287 124.694 351.178 126.012C352.186 127.245 353.079 128.566 353.848 129.959Z" fill="#263238"/>
<path d="M361.658 121.755C360.533 120.628 359.521 119.395 358.634 118.074C357.621 116.847 356.73 115.525 355.973 114.127C357.093 115.258 358.106 116.49 358.997 117.808C360.002 119.041 360.893 120.362 361.658 121.755Z" fill="#263238"/>
<path d="M369.305 113.345C368.187 112.212 367.175 110.98 366.281 109.664C365.266 108.435 364.375 107.11 363.619 105.708C364.738 106.843 365.751 108.078 366.643 109.397C367.656 110.625 368.547 111.947 369.305 113.345Z" fill="#263238"/>
<path d="M376.778 104.701C375.658 103.57 374.645 102.338 373.754 101.021C372.743 99.7917 371.852 98.47 371.093 97.0732C372.213 98.2042 373.226 99.4365 374.117 100.754C375.128 101.983 376.019 103.305 376.778 104.701Z" fill="#263238"/>
<path d="M383.293 95.5169C382.156 94.3913 381.132 93.1586 380.234 91.8361C379.247 90.6043 378.38 89.2826 377.642 87.8887C378.763 89.0197 379.775 90.2519 380.666 91.5695C381.659 92.804 382.538 94.1252 383.293 95.5169Z" fill="#263238"/>
<path d="M388.986 84.9044C387.86 83.7733 386.845 82.5379 385.954 81.215C384.941 79.9877 384.05 78.6657 383.293 77.2676C384.411 78.4009 385.423 79.6329 386.317 80.9484C387.328 82.1817 388.222 83.5061 388.986 84.9044Z" fill="#263238"/>
<path d="M392.235 73.4577C391.218 72.4635 390.306 71.3685 389.513 70.1897C388.598 69.097 387.805 67.9091 387.146 66.6465C388.16 67.6442 389.069 68.742 389.859 69.9231C390.776 71.0133 391.572 72.1983 392.235 73.4577Z" fill="#263238"/>
<path d="M393.687 62.1141C392.667 61.1226 391.755 60.0272 390.965 58.8461C390.062 57.7493 389.272 56.5652 388.606 55.3115C389.631 56.2984 390.544 57.3943 391.328 58.5795C392.235 59.6732 393.026 60.8577 393.687 62.1141Z" fill="#263238"/>
<path d="M152.779 103.924C170.52 86.2647 170.52 57.6337 152.779 39.9747C135.038 22.3157 106.274 22.3157 88.5324 39.9747C70.7912 57.6337 70.7912 86.2647 88.5324 103.924C106.274 121.583 135.038 121.583 152.779 103.924Z" fill="#FDB704"/>
<path opacity="0.2" d="M152.779 103.924C170.52 86.2647 170.52 57.6337 152.779 39.9747C135.038 22.3157 106.274 22.3157 88.5324 39.9747C70.7912 57.6337 70.7912 86.2647 88.5324 103.924C106.274 121.583 135.038 121.583 152.779 103.924Z" fill="white"/>
<path d="M130.426 27.792C131.054 28.4738 131.567 29.2521 131.946 30.0968C132.459 30.8604 132.841 31.7031 133.078 32.5908C132.453 31.9194 131.94 31.1529 131.558 30.3204C131.042 29.5462 130.659 28.6917 130.426 27.792Z" fill="#263238"/>
<path d="M137.874 30.251C138.48 30.8913 138.976 31.6263 139.342 32.4268C139.833 33.1574 140.196 33.9659 140.414 34.8176C139.808 34.1773 139.311 33.4422 138.945 32.6418C138.452 31.9121 138.09 31.1033 137.874 30.251Z" fill="#263238"/>
<path d="M144.682 33.5967C145.294 34.2318 145.791 34.968 146.151 35.7725C146.646 36.5016 147.012 37.3104 147.231 38.1633C146.618 37.5281 146.121 36.7919 145.762 35.9875C145.269 35.2569 144.904 34.4485 144.682 33.5967Z" fill="#263238"/>
<path d="M122.537 26.7422C123.163 27.4136 123.676 28.1801 124.058 29.0126C124.571 29.7762 124.953 30.6189 125.19 31.5066C124.565 30.8352 124.052 30.0687 123.669 29.2362C123.155 28.4733 122.773 27.6304 122.537 26.7422Z" fill="#263238"/>
<path d="M115.202 27.0605C115.828 27.7294 116.339 28.4965 116.714 29.3309C117.223 30.0968 117.605 30.9388 117.846 31.8249C117.214 31.1574 116.697 30.3902 116.317 29.5545C115.814 28.7876 115.438 27.9456 115.202 27.0605Z" fill="#263238"/>
<path d="M107.996 28.6514C108.618 29.3061 109.131 30.0551 109.517 30.8702C110.025 31.6137 110.404 32.4362 110.64 33.304C110.017 32.6534 109.504 31.9071 109.12 31.0938C108.613 30.3467 108.233 29.5215 107.996 28.6514Z" fill="#263238"/>
<path d="M101.37 30.8701C101.999 31.5383 102.512 32.3055 102.89 33.1405C103.399 33.9064 103.781 34.7484 104.022 35.6345C103.391 34.9629 102.874 34.1931 102.493 33.3555C101.988 32.5917 101.609 31.7527 101.37 30.8701Z" fill="#263238"/>
<path d="M95.0364 34.4736C95.6674 35.1403 96.1814 35.9078 96.557 36.744C97.0697 37.5077 97.4521 38.3504 97.6889 39.238C97.067 38.5673 96.5539 37.8042 96.1682 36.9762C95.6565 36.209 95.2742 35.3636 95.0364 34.4736Z" fill="#263238"/>
<path d="M89.5154 38.9023C90.1388 39.5783 90.6519 40.3473 91.036 41.1813C91.5477 41.9424 91.93 42.7821 92.1679 43.6667C91.5428 42.9953 91.0295 42.2289 90.6472 41.3963C90.1346 40.6327 89.7522 39.79 89.5154 38.9023Z" fill="#263238"/>
<path d="M85.1436 43.5645C85.7669 44.2404 86.2801 45.0094 86.6642 45.8435C87.1758 46.6045 87.5582 47.4442 87.796 48.3289C87.171 47.6574 86.6577 46.891 86.2754 46.0585C85.7628 45.2948 85.3803 44.4521 85.1436 43.5645Z" fill="#263238"/>
<path d="M81.4283 49.5068C82.0764 50.2066 82.6126 51.0013 83.0181 51.8632C83.5454 52.6554 83.9421 53.5264 84.1931 54.4432C83.5512 53.7423 83.0209 52.9476 82.6207 52.0868C82.0873 51.2957 81.6848 50.4247 81.4283 49.5068Z" fill="#263238"/>
<path d="M78.2834 55.8965C78.9266 56.5933 79.4571 57.3853 79.8559 58.2443C80.3746 59.0412 80.7706 59.9108 81.031 60.8243C80.3846 60.13 79.8538 59.3374 79.4585 58.4765C78.9296 57.6852 78.5328 56.8139 78.2834 55.8965Z" fill="#263238"/>
<path d="M76.1666 62.7764C76.8068 63.4618 77.3663 64.2178 77.8341 65.0296C78.4423 65.7647 78.9108 66.604 79.2165 67.5064C78.5463 66.8413 77.9655 66.0926 77.4885 65.279C76.8786 64.5449 76.4284 63.6927 76.1666 62.7764Z" fill="#263238"/>
<path d="M75.2422 70.4131C75.9453 71.2197 76.5274 72.1235 76.9702 73.0963C77.5468 73.982 77.9975 74.9428 78.3094 75.9515C77.6078 75.1595 77.0257 74.2701 76.5814 73.3113C76.0027 72.4114 75.552 71.4361 75.2422 70.4131Z" fill="#263238"/>
<path d="M76.1062 80.707C76.8516 81.556 77.4819 82.4986 77.9811 83.5106C78.6132 84.4486 79.1159 85.4667 79.4758 86.5378C78.7296 85.6877 78.0965 84.7454 77.5923 83.7342C76.9648 82.7949 76.4651 81.777 76.1062 80.707Z" fill="#263238"/>
<path d="M136.057 120.14C160.215 113.395 174.304 88.4341 167.528 64.3886C160.751 40.3432 135.674 26.3186 111.517 33.0639C87.3596 39.8092 73.2698 64.77 80.0465 88.8155C86.8231 112.861 111.9 126.886 136.057 120.14Z" fill="#FDB704"/>
<path opacity="0.2" d="M126.404 109.646C145.45 108.024 159.602 91.7207 158.013 73.2313C156.423 54.742 139.695 41.0683 120.649 42.6902C101.603 44.3121 87.4518 60.6155 89.041 79.1049C90.6302 97.5942 107.358 111.268 126.404 109.646Z" fill="white"/>
<path d="M126.4 109.491C117.427 110.268 108.505 107.529 101.532 101.855C94.5586 96.1817 90.086 88.023 89.0662 79.1162C89.0662 79.443 89.0662 79.7698 89.1266 80.0966C89.9092 89.1972 94.2917 97.6157 101.31 103.5C104.785 106.414 108.803 108.617 113.134 109.986C117.465 111.354 122.024 111.859 126.551 111.474C131.078 111.088 135.484 109.819 139.519 107.738C143.553 105.657 147.136 102.806 150.063 99.3466C152.99 95.8876 155.204 91.8885 156.579 87.5777C157.953 83.267 158.461 78.729 158.074 74.2228C158.074 73.896 158.005 73.5692 157.97 73.251C158.484 82.194 155.473 90.9839 149.577 97.7517C143.682 104.519 135.366 108.731 126.4 109.491Z" fill="#FAFAFA"/>
<path opacity="0.3" d="M120.671 42.8242C129.645 42.0523 138.566 44.7979 145.536 50.4762C152.506 56.1545 156.974 64.317 157.987 73.2252C157.987 72.8984 157.987 72.5716 157.927 72.2448C157.144 63.1442 152.762 54.7257 145.744 48.8414C138.725 42.957 129.646 40.0888 120.503 40.8677C111.36 41.6466 102.902 46.0089 96.9905 52.9948C91.0788 59.9807 88.1972 69.018 88.9798 78.1186C88.9798 78.4454 89.0489 78.7722 89.0834 79.0904C88.5627 70.1403 91.5729 61.3415 97.4729 54.5676C103.373 47.7938 111.697 43.5802 120.671 42.8242Z" fill="black"/>
<path d="M139.463 82.0752C139.049 77.2592 136.465 74.3352 132.957 73.3462C135.273 71.6262 136.664 68.6592 136.336 64.8494C135.929 60.1022 132.983 56.9718 127.868 56.2494L127.367 50.4014L121.941 50.8658L122.408 56.301L119.332 56.559L118.857 51.1238L113.431 51.5968L113.906 57.032L108.955 57.4534L105.499 57.7458L105.966 63.1466L109.422 62.8542L111.686 89.1186L107.875 89.4454L108.342 94.8462L112.144 94.5194L117.094 94.098L117.639 100.428L123.065 99.9632L122.52 93.6422L125.596 93.3756L126.14 99.6966L131.566 99.2408L131.005 92.7048C137.053 91.346 139.93 87.562 139.463 82.0752ZM116.299 62.2952L123.626 61.6588C127.696 61.3148 130.158 62.8112 130.452 66.2512C130.745 69.6912 128.577 71.5316 124.499 71.8756L116.17 72.5894L115.306 62.3726L116.299 62.2952ZM127.082 87.8286L118.2 88.5768L117.569 88.6284L116.654 77.93L126.158 77.1216C130.599 76.7432 133.139 78.1794 133.458 81.886C133.778 85.5926 131.523 87.4502 127.082 87.8286Z" fill="#FDB704"/>
<path opacity="0.3" d="M139.463 82.0752C139.049 77.2592 136.465 74.3352 132.957 73.3462C135.273 71.6262 136.664 68.6592 136.336 64.8494C135.929 60.1022 132.983 56.9718 127.868 56.2494L127.367 50.4014L121.941 50.8658L122.408 56.301L119.332 56.559L118.857 51.1238L113.431 51.5968L113.906 57.032L108.955 57.4534L105.499 57.7458L105.966 63.1466L109.422 62.8542L111.686 89.1186L107.875 89.4454L108.342 94.8462L112.144 94.5194L117.094 94.098L117.639 100.428L123.065 99.9632L122.52 93.6422L125.596 93.3756L126.14 99.6966L131.566 99.2408L131.005 92.7048C137.053 91.346 139.93 87.562 139.463 82.0752ZM116.299 62.2952L123.626 61.6588C127.696 61.3148 130.158 62.8112 130.452 66.2512C130.745 69.6912 128.577 71.5316 124.499 71.8756L116.17 72.5894L115.306 62.3726L116.299 62.2952ZM127.082 87.8286L118.2 88.5768L117.569 88.6284L116.654 77.93L126.158 77.1216C130.599 76.7432 133.139 78.1794 133.458 81.886C133.778 85.5926 131.523 87.4502 127.082 87.8286Z" fill="black"/>
<path d="M139.714 84.6207C139.299 79.7961 136.716 76.8807 133.208 75.8917C135.523 74.1717 136.914 71.2047 136.586 67.3863C136.18 62.6477 133.234 59.5173 128.119 58.7863L127.618 52.9297L122.192 53.3941L122.659 58.8293L119.583 59.0959L119.116 53.6607L113.682 54.1251L114.122 59.5947L109.171 60.0161L105.715 60.3085L106.182 65.7093L109.638 65.4169L111.902 91.6813L108.091 92.0081L108.558 97.4089L112.36 97.0821L117.302 96.6607L117.846 102.982L123.272 102.517L122.728 96.1963L125.803 95.9383L126.348 102.259L131.774 101.795L131.212 95.2675C137.303 93.8915 140.18 90.1075 139.714 84.6207ZM116.55 64.8407L123.903 64.2129C127.981 63.8603 130.434 65.3567 130.728 68.8053C131.022 72.2539 128.853 74.0857 124.775 74.4297L116.446 75.1435L115.582 64.9181L116.55 64.8407ZM127.333 90.3741L118.442 91.1567L117.811 91.2083L116.896 80.5185L126.4 79.6585C130.841 79.2801 133.381 80.7163 133.7 84.4315C134.02 88.1467 131.774 89.9871 127.333 90.3655V90.3741Z" fill="#FDB704"/>
<path d="M111.616 91.3195C111.245 91.3195 110.45 85.6177 109.837 78.5055C109.223 71.3933 109.033 65.6055 109.405 65.6055C109.776 65.6055 110.571 71.3159 111.184 78.4281C111.798 85.5403 111.988 91.2937 111.616 91.3195Z" fill="#FAFAFA"/>
<path d="M127.531 74.232C127.531 74.6018 125.242 75.092 122.347 75.35C119.453 75.608 117.086 75.4962 117.051 75.1264C117.016 74.7566 119.341 74.2664 122.235 74.017C125.129 73.7676 127.497 73.8622 127.531 74.232Z" fill="#FAFAFA"/>
<path d="M129.113 90.2962C129.113 90.666 126.823 91.1562 123.929 91.4142C121.034 91.6722 118.667 91.5604 118.632 91.1906C118.598 90.8208 120.922 90.3306 123.816 90.0726C126.711 89.8146 129.078 89.8834 129.113 90.2962Z" fill="#FAFAFA"/>
<path d="M281.047 347.191C310.419 317.955 310.419 270.555 281.047 241.319C251.676 212.083 204.054 212.083 174.683 241.319C145.311 270.555 145.311 317.955 174.683 347.191C204.054 376.427 251.675 376.427 281.047 347.191Z" fill="#FDB704"/>
<path opacity="0.4" d="M281.047 347.191C310.419 317.955 310.419 270.555 281.047 241.319C251.676 212.083 204.054 212.083 174.683 241.319C145.311 270.555 145.311 317.955 174.683 347.191C204.054 376.427 251.675 376.427 281.047 347.191Z" fill="black"/>
<path d="M276.47 339.32C305.842 310.084 305.842 262.683 276.47 233.448C247.098 204.212 199.477 204.212 170.105 233.448C140.734 262.683 140.734 310.084 170.105 339.32C199.477 368.556 247.098 368.556 276.47 339.32Z" fill="#FDB704"/>
<path opacity="0.2" d="M228.276 341.011C259.779 337.964 282.897 310.707 279.912 280.13C276.927 249.553 248.969 227.236 217.467 230.283C185.964 233.33 162.846 260.587 165.831 291.164C168.816 321.741 196.774 344.058 228.276 341.011Z" fill="white"/>
<path d="M228.265 340.771C213.427 342.206 198.612 337.825 186.969 328.558C175.325 319.292 167.77 305.872 165.91 291.149C165.91 291.691 165.971 292.233 166.023 292.775C167.493 307.828 174.91 321.684 186.644 331.294C198.377 340.904 213.465 345.481 228.589 344.018C243.713 342.555 257.633 335.171 267.288 323.492C276.942 311.813 281.541 296.794 280.071 281.741C280.01 281.199 279.932 280.666 279.872 280.124C280.893 294.93 276.073 309.55 266.436 320.875C256.8 332.199 243.106 339.337 228.265 340.771Z" fill="#FAFAFA"/>
<path opacity="0.3" d="M217.491 230.476C232.329 229.044 247.144 233.425 258.789 242.691C270.434 251.956 277.99 265.376 279.855 280.098C279.811 279.556 279.785 279.023 279.734 278.473C278.264 263.419 270.846 249.563 259.113 239.953C247.379 230.343 232.291 225.766 217.167 227.23C202.043 228.693 188.123 236.076 178.468 247.755C168.814 259.434 164.216 274.453 165.686 289.506C165.746 290.057 165.824 290.59 165.893 291.123C164.872 276.318 169.691 261.7 179.325 250.375C188.96 239.051 202.652 231.912 217.491 230.476Z" fill="black"/>
<path d="M254.176 298.916C253.399 290.943 249.079 286.153 243.247 284.588C247.048 281.655 249.295 276.753 248.673 270.45C247.912 262.615 242.979 257.481 234.503 256.423L233.553 246.748L224.584 247.608L225.448 256.604L220.394 257.137L219.53 248.141L210.553 249.001L211.417 257.997L203.244 258.788L197.55 259.338L198.414 268.274L204.108 267.715L208.298 311.128L202 311.738L202.864 320.674L209.162 320.063L217.336 319.272L218.355 329.729L227.332 328.869L226.312 318.412L231.401 317.922L232.49 328.371L241.467 327.511L240.413 316.709C250.375 314.31 255.066 307.997 254.176 298.916ZM215.461 266.597L227.617 265.427C234.356 264.774 238.452 267.207 239.005 272.901C239.558 278.594 236.007 281.673 229.267 282.361L215.443 283.694L213.793 266.795L215.461 266.597ZM233.803 308.677L219.115 310.096L218.079 310.199L216.351 292.509L232.084 290.986C239.428 290.273 243.662 292.603 244.258 298.726C244.854 304.85 241.13 307.954 233.803 308.668V308.677Z" fill="#FDB704"/>
<path opacity="0.3" d="M254.176 298.916C253.399 290.943 249.079 286.153 243.247 284.588C247.048 281.655 249.295 276.753 248.673 270.45C247.912 262.615 242.979 257.481 234.503 256.423L233.553 246.748L224.584 247.608L225.448 256.604L220.394 257.137L219.53 248.141L210.553 249.001L211.417 257.997L203.244 258.788L197.55 259.338L198.414 268.274L204.108 267.715L208.298 311.128L202 311.738L202.864 320.674L209.162 320.063L217.336 319.272L218.355 329.729L227.332 328.869L226.312 318.412L231.401 317.922L232.49 328.371L241.467 327.511L240.413 316.709C250.375 314.31 255.066 307.997 254.176 298.916ZM215.461 266.597L227.617 265.427C234.356 264.774 238.452 267.207 239.005 272.901C239.558 278.594 236.007 281.673 229.267 282.361L215.443 283.694L213.793 266.795L215.461 266.597ZM233.803 308.677L219.115 310.096L218.079 310.199L216.351 292.509L232.084 290.986C239.428 290.273 243.662 292.603 244.258 298.726C244.854 304.85 241.13 307.954 233.803 308.668V308.677Z" fill="black"/>
<path d="M249.822 299.337C249.044 291.364 244.716 286.574 238.892 285.009C242.685 282.076 244.94 277.174 244.318 270.871C243.549 263.036 238.625 257.902 230.14 256.844L229.198 247.169L220.221 248.029L221.085 257.025L215.988 257.515L215.124 248.519L206.155 249.379L207.019 258.375L198.846 259.166L193.152 259.716L194.016 268.652L199.71 268.101L203.978 311.557L197.688 312.159L198.552 321.095L204.842 320.484L213.016 319.693L214.044 330.15L223.012 329.29L221.993 318.833L227.09 318.343L228.11 328.8L237.087 327.94L236.024 317.139C246.012 314.756 250.703 308.418 249.822 299.337ZM211.106 267.018L223.254 265.84C229.993 265.186 234.089 267.62 234.65 273.313C235.212 279.006 231.652 282.085 224.904 282.773L211.08 284.106L209.421 267.207L211.106 267.018ZM229.44 309.089L214.752 310.508L213.715 310.611L211.987 292.921L227.729 291.399C235.065 290.685 239.307 293.016 239.903 299.139C240.499 305.262 236.81 308.375 229.44 309.089Z" fill="#FDB704"/>
<path d="M291.242 254.169C291.11 254.014 290.997 253.843 290.905 253.662L290.041 252.105C289.678 251.408 289.177 250.566 288.607 249.594C288.037 248.622 287.363 247.47 286.516 246.248C281.924 239.232 276.185 233.029 269.539 227.896C264.955 224.37 259.984 221.372 254.721 218.961C248.667 216.217 242.276 214.279 235.713 213.199C232.176 212.593 228.597 212.259 225.008 212.201C221.254 212.107 217.498 212.308 213.776 212.803C209.933 213.304 206.134 214.101 202.414 215.185C194.737 217.423 187.471 220.873 180.892 225.402C177.699 227.592 174.686 230.031 171.881 232.695C166.565 237.74 162.024 243.535 158.402 249.895C155.124 255.649 152.62 261.808 150.955 268.213C149.554 273.8 148.792 279.527 148.682 285.284C148.568 290.045 148.921 294.806 149.736 299.5C150.346 303.049 151.212 306.549 152.328 309.974C152.752 311.393 153.192 312.623 153.624 313.698C154.056 314.773 154.376 315.668 154.687 316.39L155.352 318.041C155.442 318.226 155.503 318.423 155.534 318.626C155.41 318.464 155.306 318.288 155.223 318.101L154.436 316.502C154.082 315.797 153.667 314.911 153.253 313.844C152.838 312.778 152.294 311.557 151.836 310.138C150.621 306.713 149.676 303.199 149.011 299.629C148.11 294.895 147.685 290.084 147.74 285.267C147.861 272.647 151.187 260.263 157.409 249.267C161.065 242.786 165.666 236.88 171.06 231.74C173.917 229.028 176.982 226.54 180.227 224.301C186.918 219.684 194.314 216.173 202.129 213.904C205.919 212.802 209.79 211.996 213.707 211.496C217.482 211.007 221.289 210.814 225.094 210.92C228.745 210.993 232.385 211.347 235.981 211.977C248.48 214.074 260.24 219.294 270.161 227.148C273.961 230.133 277.452 233.489 280.58 237.167C282.936 239.928 285.073 242.867 286.974 245.956C287.795 247.203 288.417 248.381 288.97 249.396C289.523 250.411 289.972 251.262 290.3 251.976L291.052 253.601C291.242 253.971 291.294 254.16 291.242 254.169Z" fill="#FAFAFA"/>
<path d="M215.124 248.536C215.124 248.768 211.668 249.31 206.207 249.964L206.708 249.353C207.019 251.933 207.356 255.012 207.702 258.332L207.763 258.994L207.097 259.063L204.678 259.303C200.436 259.716 196.487 260.052 193.213 260.293L193.723 259.69C194.129 265.091 194.267 268.652 194.034 268.678C193.8 268.703 193.256 265.177 192.608 259.794L192.539 259.252L193.109 259.192C196.366 258.796 200.306 258.375 204.548 257.962L206.968 257.738L206.363 258.461C206.052 255.141 205.793 252.054 205.594 249.465V248.898L206.13 248.854C211.547 248.442 215.107 248.304 215.124 248.536Z" fill="#FAFAFA"/>
<path d="M231.099 247.143C231.099 247.513 228.732 248.046 225.734 248.338C222.736 248.631 220.282 248.562 220.247 248.192C220.213 247.822 222.606 247.289 225.604 247.005C228.602 246.721 231.065 246.816 231.099 247.143Z" fill="#FAFAFA"/>
<path d="M203.442 310.972C203.071 310.972 201.835 301.512 200.695 289.739C199.554 277.965 198.915 268.419 199.287 268.385C199.658 268.35 200.885 277.845 202.034 289.61C203.183 301.374 203.814 310.938 203.442 310.972Z" fill="#FAFAFA"/>
<path d="M229.457 282.377C229.457 282.747 225.647 283.427 220.861 283.882C216.074 284.338 212.177 284.424 212.143 284.054C212.108 283.685 215.953 283.014 220.731 282.549C225.509 282.085 229.423 282.008 229.457 282.377Z" fill="#FAFAFA"/>
<path d="M232.378 308.874C232.421 309.244 228.568 309.914 223.79 310.379C219.012 310.843 215.106 310.912 215.063 310.551C215.02 310.19 218.873 309.502 223.66 309.037C228.447 308.573 232.343 308.504 232.378 308.874Z" fill="#FAFAFA"/>
<path d="M212.54 367.551C210.785 365.095 209.28 362.471 208.048 359.717C209.8 362.175 211.305 364.8 212.54 367.551Z" fill="#263238"/>
<path d="M200.159 363.622C199.252 362.49 198.465 361.268 197.809 359.975C197.025 358.756 196.371 357.459 195.857 356.105C197.557 358.453 199.005 360.973 200.177 363.622H200.159Z" fill="#263238"/>
<path d="M188.815 358.213C187.913 357.079 187.128 355.857 186.473 354.566C185.687 353.347 185.03 352.05 184.512 350.696C185.419 351.828 186.207 353.05 186.862 354.343C187.646 355.562 188.301 356.859 188.815 358.213Z" fill="#263238"/>
<path d="M225.578 369.143C224.643 367.956 223.826 366.68 223.142 365.333C222.325 364.064 221.638 362.715 221.094 361.309C222.031 362.492 222.847 363.765 223.53 365.11C224.349 366.381 225.035 367.733 225.578 369.143Z" fill="#263238"/>
<path d="M237.743 368.472C235.991 366.014 234.486 363.39 233.25 360.638C235.006 363.094 236.511 365.718 237.743 368.472Z" fill="#263238"/>
<path d="M249.667 365.883C248.727 364.7 247.908 363.427 247.221 362.082C246.411 360.806 245.726 359.455 245.174 358.049C246.114 359.235 246.933 360.511 247.619 361.859C248.43 363.132 249.116 364.479 249.667 365.883Z" fill="#263238"/>
<path d="M260.57 361.91C259.63 360.724 258.811 359.448 258.125 358.1C257.316 356.826 256.63 355.478 256.077 354.075C257.019 355.257 257.838 356.53 258.522 357.876C259.333 359.153 260.018 360.503 260.57 361.91Z" fill="#263238"/>
<path d="M270.99 355.83C270.052 354.642 269.233 353.366 268.545 352.02C267.735 350.743 267.049 349.393 266.497 347.986C267.437 349.172 268.257 350.448 268.942 351.796C269.754 353.071 270.44 354.422 270.99 355.83Z" fill="#263238"/>
<path d="M280.01 348.382C279.072 347.195 278.253 345.919 277.565 344.572C276.755 343.296 276.069 341.945 275.517 340.539C276.458 341.725 277.277 343.001 277.962 344.349C278.775 345.624 279.46 346.975 280.01 348.382Z" fill="#263238"/>
<path d="M287.19 340.556C286.257 339.367 285.441 338.091 284.753 336.746C283.935 335.475 283.249 334.123 282.706 332.713C283.641 333.9 284.458 335.176 285.142 336.523C285.963 337.793 286.649 339.145 287.19 340.556Z" fill="#263238"/>
<path d="M293.704 331.509C291.955 329.046 290.45 326.419 289.212 323.666C290.15 324.854 290.968 326.13 291.657 327.476C292.471 328.75 293.157 330.101 293.704 331.509Z" fill="#263238"/>
<path d="M299.018 321.241C298.078 320.055 297.259 318.779 296.573 317.431C295.761 316.156 295.075 314.805 294.525 313.397C295.463 314.585 296.282 315.861 296.971 317.207C297.781 318.484 298.466 319.834 299.018 321.241Z" fill="#263238"/>
<path d="M302.388 309.717C301.448 308.531 300.628 307.255 299.943 305.907C299.13 304.626 298.444 303.27 297.895 301.856C298.833 303.044 299.652 304.32 300.34 305.666C301.151 306.948 301.837 308.305 302.388 309.717Z" fill="#263238"/>
<path d="M303.952 297.488C302.849 296.019 301.87 294.463 301.023 292.835C300.045 291.282 299.198 289.651 298.491 287.959C300.564 290.985 302.39 294.171 303.952 297.488Z" fill="#263238"/>
<path d="M302.258 280.261C301.161 278.791 300.184 277.235 299.338 275.609C298.362 274.056 297.513 272.428 296.798 270.741C297.902 272.208 298.882 273.765 299.727 275.394C300.699 276.947 301.546 278.574 302.258 280.261Z" fill="#263238"/>
<g opacity="0.2">
<path d="M174.74 261.926L235.799 255.967L244.845 265.366L244.897 265.427H244.984L263.49 263.517L268.458 262.984L269.737 262.829H269.979C269.993 262.907 270.016 262.982 270.048 263.053C270.175 263.33 270.386 263.561 270.651 263.713C270.916 263.865 271.222 263.931 271.526 263.901C271.831 263.872 272.118 263.749 272.349 263.549C272.58 263.349 272.742 263.083 272.813 262.786C272.868 262.55 272.862 262.303 272.794 262.069C272.725 261.836 272.598 261.624 272.424 261.453C272.192 261.23 271.883 261.104 271.56 261.101C271.344 261.101 271.241 261.161 271.241 261.187C271.241 261.213 271.733 261.187 272.104 261.703C272.212 261.836 272.285 261.993 272.319 262.161C272.352 262.329 272.343 262.502 272.295 262.666C272.238 262.859 272.124 263.03 271.969 263.157C271.813 263.285 271.623 263.364 271.423 263.383C271.222 263.403 271.02 263.362 270.843 263.266C270.666 263.171 270.521 263.025 270.428 262.847C270.35 262.695 270.308 262.527 270.308 262.356C270.308 262.186 270.35 262.018 270.428 261.866C270.731 261.316 271.232 261.273 271.206 261.187C271.18 261.101 271.094 261.127 270.878 261.187C270.568 261.257 270.296 261.441 270.117 261.703C270.006 261.866 269.931 262.051 269.897 262.245C269.863 262.439 269.87 262.638 269.919 262.829H269.677L268.398 262.933L263.421 263.38L244.984 265.1L235.972 255.64L235.903 255.562H235.808L174.689 261.436L151.62 263.681C151.559 263.853 151.507 264.025 151.447 264.197L174.74 261.926Z" fill="white"/>
<path d="M270.567 247.625L280.209 257.42L280.278 257.489H280.382L292.158 256.276C292.158 256.19 292.08 256.104 292.046 256.01L280.451 257.05L270.843 247.203L270.757 247.117H270.636L262.955 247.857L234.529 250.686L225.889 251.598L223.556 251.873C223.282 251.893 223.011 251.936 222.744 252.002C223.017 252.025 223.292 252.025 223.565 252.002L225.915 251.821L234.555 251.073L262.998 248.399L270.567 247.625Z" fill="white"/>
<path d="M208.92 281.5L214.899 283.977H214.942L225.008 283.056L227.678 282.79H227.859C227.885 282.981 227.984 283.154 228.135 283.275C228.286 283.395 228.478 283.452 228.671 283.435C228.871 283.415 229.054 283.318 229.181 283.164C229.308 283.01 229.369 282.812 229.349 282.614C229.33 282.415 229.232 282.233 229.077 282.106C228.923 281.979 228.724 281.919 228.524 281.938C228.335 281.96 228.161 282.051 228.036 282.195C227.911 282.338 227.845 282.523 227.85 282.712H227.669L224.991 282.893L214.96 283.667L208.989 281.139H208.946H208.894L166.014 285.215L150.989 286.677L148.051 285.258C148.051 285.439 148.051 285.619 148.051 285.8L150.842 287.159H150.903H150.98L166.066 285.705L208.92 281.5Z" fill="white"/>
<path d="M214.415 277.69L208.773 275.97H208.722H208.67L205.058 276.34C204.859 274.035 204.669 271.833 204.488 269.752V269.528H204.263L187.718 271.352L183.095 271.893L182.586 271.962C182.554 271.78 182.454 271.616 182.307 271.503C182.16 271.39 181.976 271.336 181.791 271.352C181.592 271.371 181.41 271.468 181.284 271.621C181.158 271.774 181.097 271.971 181.117 272.169C181.129 272.365 181.22 272.548 181.368 272.678C181.516 272.807 181.71 272.873 181.907 272.861C182.104 272.848 182.288 272.758 182.419 272.611C182.549 272.463 182.615 272.27 182.603 272.074L183.113 272.031L187.752 271.61L204.065 270.036C204.226 272.128 204.402 274.33 204.592 276.641V276.881H204.842L208.652 276.503L214.294 278.223H214.346H214.398L221.422 277.544L253.079 274.405L258.946 277.612H258.989H259.032L264.977 276.967L266.549 276.778H266.627C266.753 277.058 266.964 277.292 267.231 277.446C267.498 277.6 267.806 277.666 268.113 277.636C268.42 277.605 268.709 277.48 268.94 277.276C269.171 277.073 269.332 276.802 269.4 276.503C269.456 276.268 269.449 276.022 269.381 275.79C269.313 275.558 269.185 275.347 269.011 275.179C268.781 274.951 268.472 274.822 268.147 274.817C267.931 274.817 267.828 274.878 267.828 274.912C267.828 274.946 268.32 274.912 268.692 275.428C268.801 275.56 268.876 275.717 268.91 275.885C268.945 276.053 268.938 276.227 268.89 276.391C268.835 276.586 268.722 276.76 268.566 276.89C268.41 277.02 268.218 277.1 268.015 277.119C267.812 277.139 267.609 277.097 267.43 276.999C267.252 276.901 267.107 276.753 267.016 276.572C266.938 276.42 266.898 276.252 266.898 276.082C266.898 275.911 266.938 275.743 267.016 275.591C267.318 275.041 267.819 274.989 267.793 274.912C267.767 274.835 267.672 274.843 267.465 274.912C267.156 274.978 266.883 275.16 266.705 275.419C266.577 275.606 266.496 275.821 266.469 276.045C266.442 276.27 266.469 276.498 266.549 276.709H266.489L264.907 276.821L258.998 277.329L253.226 274.035H253.174H253.114L221.388 277.036L214.415 277.69Z" fill="white"/>
<path d="M181.246 334.158C181.017 333.93 180.707 333.801 180.382 333.797C180.166 333.797 180.063 333.857 180.063 333.891C180.063 333.926 180.555 333.891 180.927 334.407C181.034 334.541 181.108 334.698 181.141 334.866C181.174 335.034 181.166 335.207 181.117 335.371C181.06 335.563 180.946 335.734 180.791 335.862C180.636 335.99 180.445 336.068 180.245 336.088C180.044 336.107 179.842 336.067 179.665 335.971C179.488 335.875 179.344 335.729 179.25 335.551C179.172 335.4 179.131 335.232 179.131 335.061C179.131 334.89 179.172 334.722 179.25 334.571C179.553 334.02 180.054 333.969 180.028 333.891C180.002 333.814 179.907 333.823 179.7 333.891C179.39 333.957 179.118 334.139 178.939 334.399C178.802 334.6 178.719 334.833 178.698 335.075C178.677 335.318 178.718 335.562 178.818 335.783C178.944 336.062 179.153 336.295 179.418 336.45C179.683 336.604 179.99 336.672 180.296 336.643C180.601 336.611 180.889 336.485 181.119 336.284C181.35 336.082 181.512 335.814 181.583 335.517C181.583 335.517 181.583 335.517 181.583 335.465H181.808L182.922 335.388L187.139 335.052L201.913 333.719H202.043L202.103 333.599L206.354 324.629V324.569V324.492C206.225 323.133 206.086 321.74 205.948 320.329C205.343 314.266 204.773 308.564 204.289 303.688V303.576L204.194 303.525L197.127 298.907H197.066L190.154 299.655L188.297 299.878H188.046C188.018 299.553 187.874 299.248 187.64 299.018C187.41 298.791 187.1 298.662 186.776 298.657C186.56 298.657 186.456 298.717 186.456 298.752C186.456 298.786 186.949 298.752 187.32 299.268C187.426 299.401 187.498 299.556 187.531 299.722C187.564 299.888 187.557 300.06 187.51 300.222C187.458 300.419 187.347 300.594 187.192 300.726C187.037 300.858 186.846 300.939 186.643 300.96C186.44 300.98 186.236 300.939 186.058 300.841C185.879 300.743 185.735 300.593 185.644 300.412C185.565 300.26 185.524 300.092 185.524 299.921C185.524 299.751 185.565 299.583 185.644 299.431C185.946 298.881 186.448 298.829 186.422 298.752C186.396 298.674 186.301 298.683 186.093 298.752C185.783 298.814 185.509 298.997 185.333 299.259C185.192 299.457 185.106 299.688 185.083 299.93C185.061 300.171 185.102 300.415 185.203 300.635C185.329 300.915 185.539 301.149 185.805 301.304C186.072 301.458 186.38 301.526 186.687 301.496C186.993 301.467 187.283 301.342 187.515 301.14C187.746 300.937 187.908 300.668 187.977 300.369C187.998 300.235 187.998 300.098 187.977 299.964H188.219L190.094 299.827L196.954 299.242C198.932 300.566 201.274 302.132 203.866 303.843C204.332 308.702 204.868 314.369 205.447 320.389C205.585 321.774 205.715 323.141 205.853 324.483L201.723 333.281L187.096 334.794L182.897 335.267L181.791 335.414H181.575C181.626 335.194 181.623 334.964 181.566 334.745C181.509 334.527 181.399 334.325 181.246 334.158Z" fill="white"/>
<path d="M260.138 312.598C260.326 312.578 260.499 312.488 260.623 312.346C260.746 312.204 260.811 312.02 260.803 311.832L262.989 311.669L271.076 310.972H271.128H271.171L279.639 304.015L296.754 302.381C296.754 302.2 296.832 302.028 296.875 301.848L279.518 303.568H279.449L279.388 303.619L270.981 310.671L262.972 311.531L260.786 311.798C260.761 311.603 260.659 311.426 260.503 311.306C260.346 311.185 260.148 311.132 259.952 311.157C259.756 311.182 259.579 311.284 259.458 311.439C259.337 311.595 259.283 311.792 259.309 311.987C259.341 312.176 259.445 312.345 259.6 312.459C259.754 312.573 259.947 312.623 260.138 312.598Z" fill="white"/>
<path d="M221.094 360.93C221.094 360.672 221.094 360.336 221.033 359.941C220.947 358.78 220.817 357.249 220.679 355.391C220.351 351.564 219.858 346.267 219.288 340.427C219.107 338.604 218.934 336.824 218.761 335.138V335.035L218.683 334.975L210.043 327.983C209.879 326.59 209.741 325.403 209.637 324.543C209.56 323.958 209.499 323.571 209.465 323.399C209.558 323.421 209.656 323.421 209.75 323.399C209.898 323.385 210.038 323.327 210.153 323.233C210.268 323.139 210.353 323.014 210.396 322.872C210.439 322.731 210.439 322.579 210.396 322.438C210.353 322.296 210.269 322.17 210.154 322.076C210.039 321.982 209.899 321.924 209.751 321.91C209.603 321.895 209.453 321.925 209.322 321.995C209.191 322.065 209.084 322.171 209.014 322.302C208.944 322.433 208.914 322.581 208.929 322.728C208.942 322.867 208.995 322.998 209.08 323.108C209.166 323.218 209.281 323.301 209.413 323.348C209.413 323.511 209.413 323.907 209.465 324.526C209.534 325.386 209.62 326.598 209.732 328.035V328.095L209.784 328.146L218.321 335.241C218.476 336.901 218.64 338.638 218.813 340.401C219.383 346.241 219.928 351.53 220.351 355.357C220.567 357.197 220.74 358.719 220.878 359.88L221.008 360.869C220.832 360.899 220.672 360.99 220.558 361.127H221.742C221.657 361.047 221.554 360.987 221.441 360.953C221.329 360.918 221.21 360.91 221.094 360.93Z" fill="white"/>
<path d="M186.162 250.54C186.171 250.643 186.2 250.742 186.249 250.832C186.298 250.923 186.365 251.002 186.446 251.065C186.527 251.128 186.621 251.174 186.721 251.199C186.821 251.224 186.925 251.228 187.026 251.211C187.171 251.189 187.307 251.125 187.415 251.027C187.524 250.929 187.602 250.801 187.639 250.66C187.675 250.519 187.67 250.37 187.623 250.231C187.576 250.093 187.489 249.972 187.373 249.882C187.258 249.792 187.118 249.738 186.972 249.726C186.826 249.714 186.679 249.745 186.551 249.815C186.422 249.885 186.317 249.991 186.248 250.12C186.179 250.249 186.149 250.395 186.162 250.54Z" fill="white"/>
<path d="M245.856 318.497L247.351 318.342H247.61C247.606 318.39 247.606 318.439 247.61 318.488C247.619 318.586 247.647 318.681 247.693 318.769C247.739 318.856 247.802 318.933 247.879 318.995C247.955 319.058 248.043 319.104 248.138 319.132C248.233 319.161 248.333 319.169 248.431 319.159C248.628 319.137 248.809 319.039 248.935 318.887C249.061 318.734 249.122 318.539 249.105 318.342C249.095 318.158 249.018 317.985 248.887 317.855C248.756 317.726 248.582 317.649 248.397 317.64C248.213 317.632 248.032 317.692 247.89 317.809C247.747 317.926 247.654 318.091 247.627 318.273H247.351L245.848 318.342L240.24 318.694L221.448 320.027C221.189 317.94 220.924 315.79 220.653 313.577C220.576 312.967 220.498 312.356 220.429 311.789L227.168 304.418L227.246 304.341V304.229C226.995 301.83 226.762 299.559 226.554 297.513V297.427L226.485 297.366L224.239 295.543L224.17 295.492H224.092L215.556 296.403L213.223 296.687H212.938C212.91 296.359 212.762 296.053 212.523 295.827C212.293 295.599 211.983 295.47 211.659 295.466C211.443 295.466 211.339 295.526 211.339 295.56C211.339 295.595 211.832 295.56 212.203 296.076C212.364 296.276 212.447 296.526 212.437 296.782H212.359H212.428C212.44 296.853 212.44 296.925 212.428 296.997C212.375 297.192 212.263 297.367 212.108 297.498C211.952 297.629 211.76 297.709 211.558 297.729C211.355 297.748 211.151 297.706 210.973 297.608C210.795 297.509 210.652 297.359 210.562 297.177C210.483 297.026 210.442 296.858 210.442 296.687C210.442 296.516 210.483 296.348 210.562 296.197C210.864 295.655 211.365 295.603 211.339 295.526C211.313 295.449 211.227 295.457 211.011 295.526C210.7 295.589 210.427 295.771 210.251 296.033C210.114 296.233 210.031 296.465 210.009 296.706C209.988 296.947 210.03 297.189 210.13 297.409C210.253 297.691 210.462 297.926 210.728 298.082C210.994 298.238 211.302 298.306 211.609 298.276C211.917 298.247 212.206 298.121 212.437 297.917C212.668 297.714 212.828 297.443 212.895 297.143C212.907 297.026 212.907 296.907 212.895 296.79H213.18L215.521 296.618L223.997 295.879L226.096 297.599C226.278 299.594 226.485 301.795 226.701 304.126L219.928 311.488L219.85 311.574V311.694C219.919 312.296 220.005 312.941 220.083 313.595L220.947 320.285V320.535H221.189L240.197 319.004L245.856 318.497Z" fill="white"/>
<path d="M234.624 316.123C234.218 311.238 233.76 306.096 233.354 300.875C233.294 300.153 233.233 299.439 233.181 298.717V298.614L233.095 298.545L225.863 292.344L225.777 292.275H225.664L180.961 296.627H180.901H180.857L153.711 314.764L153.84 315.091L181.065 297.031L225.604 292.731L232.68 298.751C232.732 299.431 232.792 300.11 232.844 300.798C233.294 306.113 233.708 311.342 234.14 316.278V316.536H234.4L294.145 311.376L294.283 310.989L234.624 316.123Z" fill="white"/>
<path d="M233.553 288.491C233.717 289.962 233.959 292.043 234.253 294.649V294.709L234.313 294.752L247.031 304.565L247.1 304.616H247.178L264.061 303.008L293.264 300.136L297.325 299.706L297.376 299.405L293.229 299.766L264.026 302.518L247.247 304.161L234.546 294.58C234.201 292 233.924 289.962 233.682 288.5C233.587 287.829 233.501 287.287 233.44 286.875C233.425 286.687 233.387 286.503 233.328 286.324C233.311 286.51 233.311 286.697 233.328 286.883C233.432 287.236 233.484 287.803 233.553 288.491Z" fill="white"/>
<path d="M247.904 269.116H247.835L247.774 269.159L243.394 272.229L229.613 273.656L225.664 274.104L224.714 274.233C224.675 273.934 224.535 273.658 224.317 273.45C224.087 273.221 223.777 273.092 223.453 273.089C223.237 273.089 223.124 273.149 223.133 273.183C223.142 273.218 223.625 273.183 223.997 273.699C224.137 273.873 224.216 274.087 224.222 274.31C224.238 274.424 224.238 274.54 224.222 274.654C224.161 274.844 224.048 275.012 223.895 275.14C223.742 275.268 223.556 275.35 223.358 275.376C223.157 275.394 222.955 275.352 222.778 275.256C222.601 275.159 222.457 275.013 222.364 274.835C222.284 274.683 222.243 274.515 222.243 274.344C222.243 274.174 222.284 274.005 222.364 273.854C222.658 273.304 223.167 273.252 223.142 273.175C223.116 273.097 223.021 273.106 222.805 273.175C222.496 273.242 222.224 273.424 222.044 273.682C221.907 273.884 221.824 274.117 221.803 274.359C221.782 274.601 221.823 274.845 221.923 275.067C222.051 275.344 222.262 275.574 222.528 275.725C222.793 275.877 223.1 275.942 223.404 275.912C223.709 275.882 223.996 275.757 224.227 275.556C224.457 275.356 224.618 275.088 224.688 274.792C224.718 274.638 224.718 274.481 224.688 274.327L225.639 274.276L229.596 273.957L243.42 272.71H243.489H243.541L247.93 269.666L255.256 269.098L277.911 267.241L284.771 266.613L286.551 266.432C286.565 266.621 286.652 266.796 286.794 266.922C286.936 267.048 287.121 267.114 287.311 267.107C287.501 267.1 287.68 267.02 287.812 266.883C287.944 266.747 288.017 266.566 288.017 266.376C288.017 266.187 287.944 266.006 287.812 265.87C287.68 265.733 287.501 265.653 287.311 265.646C287.121 265.639 286.936 265.705 286.794 265.831C286.652 265.957 286.565 266.132 286.551 266.321L284.771 266.415L277.859 266.871L255.205 268.591L247.904 269.116Z" fill="white"/>
<path d="M210.467 344.082C210.268 342.001 210.061 339.989 209.871 338.062V337.976L209.767 337.908L205.075 335.001L205.006 334.949H204.929L194.154 336.093L191.105 336.454L190.75 336.497C190.718 336.313 190.618 336.148 190.469 336.035C190.32 335.922 190.133 335.869 189.947 335.887C189.755 335.914 189.581 336.014 189.462 336.165C189.342 336.317 189.286 336.509 189.305 336.7C189.324 336.892 189.416 337.069 189.563 337.195C189.71 337.321 189.9 337.385 190.094 337.374C190.28 337.355 190.452 337.266 190.575 337.126C190.699 336.986 190.764 336.804 190.759 336.618H191.113L194.18 336.385L204.894 335.439L209.387 338.277C209.577 340.169 209.767 342.147 209.957 344.177L211.599 360.336L211.996 360.397C211.573 355.882 211.046 350.231 210.467 344.082Z" fill="white"/>
<path d="M217.724 356.604L217.793 356.518V356.415C217.007 348.408 216.256 340.875 215.608 334.278V334.184L215.53 334.124L208.937 328.766C208.35 323.116 207.866 318.497 207.529 315.238C207.356 313.664 207.209 312.417 207.114 311.523C207.063 311.136 207.028 310.826 206.993 310.577H207.149C207.297 310.563 207.437 310.505 207.552 310.411C207.668 310.317 207.752 310.192 207.795 310.05C207.839 309.908 207.839 309.757 207.796 309.615C207.752 309.474 207.668 309.348 207.553 309.254C207.438 309.16 207.298 309.102 207.15 309.088C207.002 309.073 206.853 309.103 206.722 309.172C206.59 309.242 206.483 309.349 206.413 309.48C206.343 309.61 206.313 309.759 206.328 309.906C206.345 310.064 206.413 310.213 206.522 310.33C206.631 310.446 206.775 310.524 206.933 310.551C206.933 310.8 206.933 311.119 206.993 311.514C207.071 312.374 207.175 313.664 207.304 315.247C207.607 318.523 208.03 323.176 208.549 328.869V328.946L208.609 329.007L215.158 334.399C215.789 340.952 216.506 348.408 217.266 356.337L216.541 357.197L213.715 360.637L214.329 360.706C215.193 359.691 216.057 358.625 216.921 357.541L217.724 356.604Z" fill="white"/>
<path d="M286.672 323.528L249.122 327.089L240.888 327.888H240.707L240.664 328.06L238.072 337.744V337.83C238.936 346.181 239.67 353.534 240.257 359.33L240.577 359.253C240.033 353.482 239.35 346.155 238.564 337.839C239.428 334.829 240.292 331.655 241.156 328.379L249.209 327.605L286.749 323.898L288.538 323.709L288.745 323.348L286.672 323.528Z" fill="white"/>
<path d="M239.402 293.479V293.6L239.506 293.669L242.167 295.552L249.623 300.807L249.701 300.858H249.77L268.925 298.915L274.498 298.304L275.768 298.141C275.793 298.336 275.895 298.513 276.051 298.633C276.208 298.753 276.406 298.806 276.602 298.781C276.798 298.756 276.975 298.655 277.096 298.499C277.217 298.343 277.271 298.146 277.245 297.951C277.237 297.854 277.209 297.76 277.163 297.673C277.118 297.587 277.055 297.51 276.98 297.448C276.904 297.385 276.817 297.338 276.723 297.31C276.629 297.281 276.531 297.271 276.433 297.281C276.245 297.3 276.07 297.39 275.945 297.532C275.82 297.674 275.754 297.857 275.759 298.046L274.481 298.132L268.89 298.596L249.813 300.316L242.443 295.096L239.851 293.29C239.273 287.528 238.737 282.179 238.27 277.569V277.354H238.054L225.958 278.619L222.58 279.006L222.122 279.066C222.062 278.971 221.989 278.884 221.906 278.808C221.792 278.695 221.658 278.606 221.509 278.546C221.361 278.485 221.202 278.455 221.042 278.455C220.826 278.455 220.714 278.515 220.722 278.541C220.731 278.567 221.215 278.541 221.586 279.057C221.604 279.078 221.618 279.101 221.63 279.126L221.336 279.186C221.336 279.186 221.44 279.186 221.647 279.186C221.725 279.314 221.775 279.456 221.794 279.605C221.813 279.753 221.802 279.903 221.759 280.046C221.704 280.241 221.591 280.415 221.435 280.545C221.278 280.675 221.086 280.755 220.884 280.774C220.681 280.794 220.477 280.752 220.299 280.654C220.121 280.557 219.976 280.408 219.884 280.227C219.805 280.076 219.763 279.907 219.763 279.737C219.763 279.566 219.805 279.398 219.884 279.246C220.187 278.696 220.688 278.653 220.662 278.567C220.636 278.481 220.541 278.498 220.325 278.567C220.018 278.639 219.748 278.819 219.565 279.074C219.428 279.276 219.345 279.509 219.324 279.751C219.302 279.993 219.344 280.237 219.444 280.459C219.571 280.736 219.781 280.967 220.046 281.119C220.311 281.271 220.617 281.337 220.922 281.307C221.226 281.278 221.514 281.155 221.744 280.955C221.975 280.755 222.137 280.489 222.209 280.192C222.288 279.864 222.242 279.517 222.079 279.221H222.502L225.889 278.954L237.804 277.888C238.339 282.454 238.841 287.769 239.402 293.479Z" fill="white"/>
<path d="M296.962 283.16L289.842 277.321L289.756 277.252H289.652L289.022 277.321L258.255 280.357L253.347 277.596H253.287H253.226L246.876 278.232H246.798L246.755 278.293L240.378 286.101V286.144C240.603 288.2 240.784 289.791 240.905 290.909C240.966 291.416 241.018 291.82 241.052 292.13C241.063 292.267 241.086 292.402 241.121 292.534C241.135 292.397 241.135 292.259 241.121 292.121C241.121 291.812 241.07 291.408 241.035 290.892C240.94 289.791 240.802 288.208 240.629 286.17L247.014 278.542L253.235 277.966L258.125 280.761H258.185H258.263L289.108 277.82L289.626 277.768L296.754 283.599L296.832 283.659H296.944L298.474 283.504C298.474 283.341 298.474 283.169 298.474 283.005L296.962 283.16Z" fill="white"/>
<path d="M199.019 220.199L199.105 220.259L206.631 226.417C207.365 233.718 208.03 240.263 208.557 245.509V245.612L208.652 245.664L215.642 249.104H215.711L220.031 248.631L221.137 248.485C221.266 248.474 221.393 248.451 221.517 248.416C221.391 248.399 221.263 248.399 221.137 248.416L220.014 248.493L215.746 248.846L208.937 245.406C208.436 240.151 207.823 233.598 207.132 226.297V226.176L207.045 226.107L199.511 219.924C199.356 218.428 199.209 216.948 199.062 215.486L198.578 215.658C198.716 217.112 198.855 218.582 199.001 220.079L199.019 220.199Z" fill="white"/>
<path d="M211.469 225.755L211.409 225.832V225.927C211.953 231.087 212.411 235.49 212.748 238.689C212.921 240.203 213.067 241.424 213.171 242.335C213.207 242.773 213.277 243.207 213.378 243.634C213.396 243.198 213.378 242.761 213.327 242.327C213.258 241.407 213.162 240.177 213.042 238.663C212.756 235.481 212.359 231.104 211.892 225.978L218.899 217.542L222.649 212.984L222.718 212.906V212.803L222.589 211.53H222.122L222.234 212.743L218.537 217.215L211.469 225.755Z" fill="white"/>
<path d="M220.083 225.446C220.17 225.31 220.212 225.151 220.204 224.99C220.184 224.793 220.087 224.611 219.933 224.485C219.779 224.36 219.581 224.3 219.383 224.319C219.285 224.328 219.19 224.355 219.104 224.401C219.017 224.446 218.94 224.508 218.877 224.583C218.814 224.659 218.767 224.745 218.739 224.839C218.71 224.932 218.7 225.03 218.709 225.127C218.716 225.268 218.763 225.404 218.846 225.518C218.929 225.632 219.043 225.72 219.175 225.77C219.308 225.821 219.452 225.831 219.59 225.801C219.728 225.771 219.855 225.701 219.953 225.6L220.722 226.288C221.543 227.019 222.718 228.008 224.092 229.169C224.196 230.262 224.308 231.431 224.42 232.609C224.68 235.318 224.947 237.769 225.172 239.55C225.238 240.514 225.394 241.47 225.639 242.405C225.69 241.44 225.655 240.473 225.535 239.515C225.414 237.726 225.198 235.267 224.939 232.558C224.809 231.302 224.68 230.098 224.567 228.989V228.886L224.489 228.825C223.047 227.664 221.811 226.693 220.921 226.022L220.083 225.446Z" fill="white"/>
<path d="M228.939 244.769V244.855L228.991 244.915L232.905 248.966L232.983 249.052H233.104L255.974 246.816L267.767 245.672H267.88L267.949 245.586L276.891 233.916L276.554 233.563L267.603 245.234L255.922 246.36L233.19 248.536L229.406 244.64C228.058 231.241 226.909 219.821 226.096 211.719V211.573H225.803V211.754C226.58 219.872 227.66 231.336 228.939 244.769Z" fill="white"/>
<path d="M238.538 252.836L233.112 253.283L215.21 254.968C215.141 254.194 215.063 253.386 214.977 252.569V252.38V252.242L214.856 252.182L207.866 248.243L207.797 248.2H207.719L193.36 249.688L189.204 250.161L188.098 250.307C187.968 250.317 187.841 250.343 187.718 250.385C187.846 250.405 187.978 250.405 188.106 250.385L189.221 250.316L193.386 249.989L207.693 248.69L214.484 252.543V252.603C214.579 253.506 214.666 254.409 214.752 255.261V255.519H215.003L233.147 253.678L238.555 253.076L240.016 252.887C240.186 252.875 240.355 252.84 240.517 252.784C240.348 252.761 240.176 252.761 240.007 252.784L238.538 252.836Z" fill="white"/>
<path d="M172.874 230.812L177.652 235.559L177.738 235.636H177.851L190.811 234.321C191.113 237.09 191.364 239.369 191.545 241.02C191.623 241.639 191.692 242.164 191.744 242.594C191.744 242.594 191.683 242.594 191.683 242.645C191.683 242.697 191.683 242.645 191.761 242.688V242.895C191.774 243.116 191.811 243.335 191.874 243.548C191.898 243.328 191.898 243.106 191.874 242.886V242.723C192.145 242.791 192.388 242.945 192.565 243.161C192.672 243.295 192.747 243.452 192.781 243.619C192.816 243.787 192.81 243.96 192.763 244.125C192.708 244.32 192.595 244.493 192.439 244.623C192.283 244.753 192.091 244.833 191.888 244.853C191.685 244.872 191.482 244.83 191.303 244.733C191.125 244.635 190.98 244.486 190.889 244.305C190.809 244.154 190.768 243.986 190.768 243.815C190.768 243.644 190.809 243.476 190.889 243.325C191.191 242.774 191.692 242.723 191.666 242.645C191.64 242.568 191.545 242.577 191.329 242.645C191.177 242.677 191.032 242.737 190.903 242.824C190.774 242.912 190.663 243.023 190.578 243.153C190.437 243.352 190.351 243.585 190.328 243.828C190.305 244.071 190.347 244.315 190.448 244.537C190.576 244.814 190.787 245.045 191.052 245.196C191.318 245.348 191.624 245.413 191.929 245.382C192.234 245.352 192.521 245.228 192.751 245.027C192.981 244.826 193.143 244.559 193.213 244.262C193.27 244.027 193.264 243.781 193.196 243.548C193.128 243.316 192.999 243.105 192.824 242.938C192.595 242.709 192.284 242.579 191.96 242.577C191.917 242.57 191.873 242.57 191.83 242.577C191.83 242.138 191.761 241.622 191.718 241.003C191.571 239.283 191.372 236.961 191.122 234.123V233.916H190.923L177.963 235.12L173.298 230.468L172.874 230.812Z" fill="white"/>
</g>
<path d="M42.4101 183.09C42.4101 183.09 54.1001 173.716 92.9196 194.098C92.9196 194.098 131.972 211.023 118.917 227.191C107.815 240.951 85.0917 233.125 72.5637 227.277C65.3517 223.774 58.5753 219.445 52.3721 214.377C42.4101 206.095 34.0812 193.6 42.4101 183.09Z" fill="#FDB704"/>
<path opacity="0.4" d="M42.4101 183.09C42.4101 183.09 54.1001 173.716 92.9196 194.098C92.9196 194.098 131.972 211.023 118.917 227.191C107.815 240.951 85.0917 233.125 72.5637 227.277C65.3517 223.774 58.5753 219.445 52.3721 214.377C42.4101 206.095 34.0812 193.6 42.4101 183.09Z" fill="black"/>
<path d="M43.2742 182.402C43.2742 182.402 57.0118 168.187 95.8227 188.586C95.8227 188.586 133.934 210.198 119.436 225.093C109.491 235.301 87.9948 227.613 75.4668 221.765C68.8918 218.694 59.7161 213.552 54.1433 208.865C44.1382 200.591 36.7855 190.056 43.2742 182.402Z" fill="#FDB704"/>
<path opacity="0.2" d="M112.526 219.791C116.021 213.205 105.11 200.642 88.1558 191.73C71.2021 182.817 54.6258 180.931 51.1317 187.516C47.6375 194.102 58.5486 206.665 75.5023 215.578C92.456 224.49 109.032 226.376 112.526 219.791Z" fill="white"/>
<path d="M103.028 211.772L97.7839 208.77C96.445 206.144 94.2524 204.047 91.5631 202.819C87.2431 200.962 84.8671 201.899 84.8671 201.899C84.8671 201.899 84.7807 197.651 78.8191 194.838C71.0431 191.149 69.6952 193.548 69.6952 193.548L63.2844 189.885L61.5564 192.86L67.0168 195.982L66.5157 196.842L60.8997 193.634L59.0853 196.765L64.7532 199.766L63.8892 201.194L92.1247 217.345L93.3429 215.238L98.8984 218.42L100.454 215.728L95.2696 212.761L96.0645 211.385L101.249 214.352L103.028 211.772ZM78.1106 204.969L71.0949 200.953C71.0949 200.953 72.9957 196.137 77.4021 198.227C81.8085 200.317 78.1106 204.969 78.1106 204.969ZM89.6191 211.256L83.5711 207.816C83.5711 207.816 84.4351 203.275 88.6428 205.184C93.4898 207.351 89.6191 211.256 89.6191 211.256Z" fill="#FDB704"/>
<path opacity="0.4" d="M103.028 211.772L97.7839 208.77C96.445 206.144 94.2524 204.047 91.5631 202.819C87.2431 200.962 84.8671 201.899 84.8671 201.899C84.8671 201.899 84.7807 197.651 78.8191 194.838C71.0431 191.149 69.6952 193.548 69.6952 193.548L63.2844 189.885L61.5564 192.86L67.0168 195.982L66.5157 196.842L60.8997 193.634L59.0853 196.765L64.7532 199.766L63.8892 201.194L92.1247 217.345L93.3429 215.238L98.8984 218.42L100.454 215.728L95.2696 212.761L96.0645 211.385L101.249 214.352L103.028 211.772ZM78.1106 204.969L71.0949 200.953C71.0949 200.953 72.9957 196.137 77.4021 198.227C81.8085 200.317 78.1106 204.969 78.1106 204.969ZM89.6191 211.256L83.5711 207.816C83.5711 207.816 84.4351 203.275 88.6428 205.184C93.4898 207.351 89.6191 211.256 89.6191 211.256Z" fill="black"/>
<path d="M104.316 209.492L99.0712 206.491C97.733 203.867 95.5399 201.771 92.8504 200.548C88.5304 198.691 86.1631 199.628 86.1631 199.628C86.1631 199.628 86.0767 195.38 80.1151 192.568C72.3391 188.87 70.9999 191.278 70.9999 191.278L64.589 187.605L62.861 190.59L68.3301 193.711L67.829 194.571L62.213 191.355L60.4072 194.494L66.0751 197.495L65.2111 198.914L93.4379 215.074L94.6562 212.958L100.22 216.14L101.776 213.457L96.5915 210.481L97.3778 209.114L102.735 212.176L104.316 209.492ZM79.4066 202.69L72.3909 198.656C72.3909 198.656 74.2831 193.84 78.6981 195.922C83.1131 198.003 79.4066 202.69 79.4066 202.69ZM90.9151 208.976L84.8671 205.536C84.8671 205.536 85.7311 200.996 89.9301 202.896C94.7858 205.081 90.9151 208.976 90.9151 208.976Z" fill="#FDB704"/>
<path d="M45.0022 181.129C45.0022 181.129 45.2614 180.897 45.8662 180.57C46.1513 180.407 46.4969 180.209 46.9289 180.011C47.3609 179.814 47.8534 179.564 48.4323 179.341C51.6834 178.028 55.1261 177.247 58.6275 177.027C61.0451 176.859 63.4727 176.89 65.8851 177.122C68.6475 177.407 71.3832 177.908 74.0672 178.618C80.135 180.334 86.0252 182.621 91.6582 185.447C103.875 191.183 113.448 199.275 118.615 206.465C121.207 210.077 122.477 213.577 122.676 216.063C122.676 216.372 122.736 216.656 122.762 216.923V217.688C122.772 218.092 122.74 218.495 122.667 218.892C122.655 219.224 122.582 219.55 122.451 219.855C122.313 219.855 122.563 218.488 122.166 216.114C121.471 212.781 119.99 209.659 117.846 207.007C112.61 200.127 103.158 192.284 91.062 186.642C85.4753 183.833 79.6457 181.53 73.6438 179.762C71.0497 179.06 68.4074 178.548 65.7382 178.231C63.3898 177.963 61.0239 177.877 58.662 177.973C55.2332 178.114 51.8415 178.736 48.5878 179.822C46.255 180.596 45.0454 181.241 45.0022 181.129Z" fill="#FAFAFA"/>
<path opacity="0.4" d="M112.938 218.755C112.938 218.755 118.442 205.364 89.3253 189.626C60.2085 173.888 51.1193 187.476 51.1193 187.476C51.1193 187.476 58.6706 176.236 88.9797 192.06C115.375 205.872 112.938 218.755 112.938 218.755Z" fill="black"/>
<path d="M105.482 234.519C105.309 234.519 105.577 233.426 106.026 232.197C106.234 231.418 106.589 230.685 107.072 230.038C107 230.839 106.79 231.622 106.45 232.351C106.219 233.111 105.894 233.839 105.482 234.519Z" fill="#263238"/>
<path d="M112.679 232.317C112.506 232.317 112.679 231.414 113.068 230.434C113.457 229.453 113.837 228.671 113.932 228.714C113.917 229.365 113.758 230.005 113.466 230.588C113.295 231.202 113.029 231.785 112.679 232.317Z" fill="#263238"/>
<path d="M99.1404 234.776C99.2152 233.885 99.4401 233.013 99.8057 232.196C100.03 231.341 100.398 230.53 100.894 229.797C100.818 230.688 100.593 231.56 100.229 232.377C100.006 233.233 99.6383 234.044 99.1404 234.776Z" fill="#263238"/>
<path d="M92.9628 234.097C93.0572 233.159 93.3022 232.241 93.6885 231.38C93.9284 230.463 94.3165 229.592 94.8376 228.8C94.5002 230.648 93.8672 232.431 92.9628 234.08V234.097Z" fill="#263238"/>
<path d="M86.2408 232.282C86.3353 231.343 86.5803 230.426 86.9666 229.564C87.2107 228.65 87.5986 227.779 88.1157 226.984C88.0173 227.922 87.7724 228.839 87.39 229.702C87.148 230.618 86.7601 231.489 86.2408 232.282Z" fill="#263238"/>
<path d="M80.0287 230.081C80.1231 229.142 80.3681 228.225 80.7544 227.363C80.9986 226.448 81.3864 225.578 81.9036 224.783C81.8051 225.721 81.5603 226.638 81.1778 227.501C80.9359 228.416 80.5479 229.288 80.0287 230.081Z" fill="#263238"/>
<path d="M73.8165 227.896C73.9109 226.958 74.156 226.04 74.5423 225.179C74.7864 224.264 75.1743 223.393 75.6914 222.599C75.353 224.452 74.7201 226.241 73.8165 227.896Z" fill="#263238"/>
<path d="M67.9845 224.611C68.0782 223.673 68.3202 222.756 68.7016 221.893C68.9479 220.979 69.3356 220.109 69.8507 219.313C69.757 220.251 69.515 221.168 69.1336 222.031C68.8873 222.945 68.4996 223.816 67.9845 224.611Z" fill="#263238"/>
<path d="M62.1958 221.197C62.5351 219.346 63.1679 217.561 64.0707 215.908C63.9763 216.847 63.7312 217.764 63.3449 218.626C63.0999 219.538 62.7121 220.405 62.1958 221.197Z" fill="#263238"/>
<path d="M56.4587 217.628C56.5581 216.69 56.803 215.773 57.1845 214.91C57.4286 213.995 57.8165 213.124 58.3336 212.33C58.2352 213.268 57.9903 214.185 57.6079 215.048C57.3659 215.963 56.978 216.834 56.4587 217.628Z" fill="#263238"/>
<path d="M51.2057 213.577C51.545 211.726 52.1778 209.941 53.0806 208.288C52.9812 209.226 52.7363 210.143 52.3548 211.006C52.112 211.918 51.7241 212.786 51.2057 213.577Z" fill="#263238"/>
<path d="M46.1426 208.581C46.4819 206.73 47.1147 204.945 48.0175 203.292C47.9181 204.23 47.6732 205.146 47.2917 206.01C47.0489 206.922 46.661 207.79 46.1426 208.581Z" fill="#263238"/>
<path d="M42.3065 202.689C42.3739 201.852 42.5843 201.032 42.9286 200.264C43.1426 199.446 43.4994 198.672 43.9827 197.977C43.9129 198.806 43.7025 199.617 43.3606 200.376C43.1517 201.204 42.7947 201.988 42.3065 202.689Z" fill="#263238"/>
<path d="M39.5071 196.55C39.5745 195.712 39.7849 194.892 40.1292 194.125C40.3419 193.309 40.6988 192.537 41.1832 191.846C41.1168 192.684 40.9064 193.504 40.5612 194.271C40.3507 195.088 39.9936 195.86 39.5071 196.55Z" fill="#263238"/>
<path d="M77.4454 195.878C77.2812 196.222 76.6332 196.265 75.942 196.334C75.2508 196.403 74.5942 196.446 74.3782 196.136C74.2831 195.981 74.3782 195.732 74.6114 195.491C74.955 195.204 75.3797 195.03 75.827 194.993C76.2742 194.956 76.7219 195.058 77.1084 195.285C77.4022 195.474 77.5145 195.715 77.4454 195.878Z" fill="#FAFAFA"/>
<path d="M89.7919 202.957C89.5672 203.258 88.8587 203.137 88.0639 203.086C87.269 203.034 86.5778 203.025 86.4136 202.681C86.3359 202.518 86.4136 202.269 86.7765 202.062C87.201 201.82 87.6891 201.712 88.1765 201.752C88.6639 201.792 89.1277 201.978 89.5068 202.286C89.8092 202.561 89.9301 202.819 89.7919 202.957Z" fill="#FAFAFA"/>
<path d="M80.8582 192.937C80.8582 193.015 80.5471 192.937 80.1151 192.825L78.3871 192.172C77.5435 191.85 76.6771 191.592 75.7951 191.398C74.7645 191.149 73.6929 191.12 72.6502 191.312C72.4342 191.354 72.223 191.417 72.0194 191.501C71.8559 191.568 71.6996 191.652 71.5529 191.75L71.1382 192.069L70.758 191.854C67.1465 189.712 64.5199 187.898 64.71 187.605C64.9001 187.313 67.7772 188.663 71.4492 190.701L70.663 190.796C70.9191 190.576 71.2113 190.401 71.527 190.28C71.8028 190.152 72.0928 190.057 72.391 189.996C73.6358 189.761 74.9193 189.828 76.1321 190.194C77.025 190.471 77.8853 190.843 78.6982 191.303C79.2785 191.605 79.8283 191.962 80.3398 192.37C80.7286 192.636 80.91 192.86 80.8582 192.937Z" fill="#FAFAFA"/>
</svg>
