<svg width="32" height="32" viewBox="0 0 32 32" fill="none" xmlns="http://www.w3.org/2000/svg">
<g clip-path="url(#clip0_67_749)">
<path d="M31.5173 19.8725C29.3813 28.4458 20.7 33.6592 12.128 31.5205C3.55999 29.4005 -1.65868 20.7005 0.482656 12.1405C2.61599 3.56051 11.3 -1.65682 19.8667 0.477843C28.44 2.61784 33.656 11.2978 31.5173 19.8752V19.8725ZM23.0507 13.7218C23.3707 11.6018 21.752 10.4552 19.5307 9.68184L20.2507 6.81118L18.4973 6.37118L17.7973 9.18051C17.3373 9.06451 16.8573 8.95784 16.3787 8.84718L17.08 6.01118L15.32 5.57118L14.6 8.45784C14.22 8.36851 13.8467 8.28184 13.48 8.19118L11.06 7.59118L10.5933 9.46718C10.5933 9.46718 11.8933 9.76718 11.8667 9.78184C12.58 9.96318 12.7067 10.4298 12.6867 10.8032L10.7173 18.6965C10.6173 18.9178 10.3973 19.2378 9.89865 19.1152C9.91866 19.1418 8.61866 18.7952 8.61866 18.7952L7.73866 20.8085L10.0187 21.3765L11.2587 21.6992L10.5387 24.6192L12.2987 25.0552L13.0187 22.1618C13.4987 22.2952 13.9587 22.4152 14.4187 22.5258L13.7387 25.3978L15.4987 25.8378L16.2253 22.9178C19.212 23.4872 21.4653 23.2605 22.412 20.5525C23.172 18.3698 22.372 17.1125 20.7893 16.2912C21.928 16.0338 22.7893 15.2778 23.0293 13.7178H23.0427L23.0507 13.7218ZM19.0373 19.3485C18.4987 21.5352 14.828 20.3485 13.6373 20.0552L14.5973 16.1885C15.792 16.4952 19.6067 17.0818 19.0373 19.3485ZM19.584 13.6952C19.0907 15.6818 16.0347 14.6752 15.044 14.4285L15.916 10.9085C16.908 11.1485 20.0987 11.6072 19.5827 13.6872V13.6952H19.584Z" fill="black"/>
</g>
<defs>
<clipPath id="clip0_67_749">
<rect width="32" height="32" fill="white"/>
</clipPath>
</defs>
</svg>
