<svg width="346" height="363" viewBox="0 0 346 363" fill="none" xmlns="http://www.w3.org/2000/svg">
<path d="M271.852 112.712C271.852 112.712 243.1 71.3876 205.586 54.3411C168.073 37.2946 124.318 45.8106 95.5582 77.9506C66.7987 110.091 78.6873 161.245 64.3075 207.81C49.9278 254.376 61.1797 301.595 108.07 315.367C154.96 329.139 166.827 295.693 216.838 282.574C266.849 269.455 334.367 211.092 271.852 112.712Z" fill="white"/>
<path opacity="0.7" d="M271.852 112.712C271.852 112.712 243.1 71.3876 205.586 54.3411C168.073 37.2946 124.318 45.8106 95.5582 77.9506C66.7987 110.091 78.6873 161.245 64.3075 207.81C49.9278 254.376 61.1797 301.595 108.07 315.367C154.96 329.139 166.827 295.693 216.838 282.574C266.849 269.455 334.367 211.092 271.852 112.712Z" fill="white"/>
<path d="M185.927 304.535V297.936H167.381V304.535C167.383 306.69 166.69 308.783 165.416 310.474L164.599 311.555H188.708L187.899 310.474C186.619 308.785 185.924 306.692 185.927 304.535Z" fill="white" stroke="#263238" stroke-linecap="round" stroke-linejoin="round"/>
<g style="mix-blend-mode:multiply">
<path d="M166.246 309.167H187.068C186.318 307.75 185.925 306.156 185.927 304.535V297.936H167.381V304.535C167.382 306.155 166.991 307.748 166.246 309.167Z" fill="#FDB704"/>
</g>
<path d="M185.927 298.931H167.381V301.719H185.927V298.931Z" fill="#263238" stroke="#263238" stroke-width="1.09543" stroke-linecap="round" stroke-linejoin="round"/>
<path d="M207.489 241.373H145.818C142.268 241.373 139.39 244.393 139.39 248.118V293.275C139.39 297 142.268 300.019 145.818 300.019H207.489C211.04 300.019 213.918 297 213.918 293.275V248.118C213.918 244.393 211.04 241.373 207.489 241.373Z" fill="#263238" stroke="#263238" stroke-width="1.09543" stroke-linecap="round" stroke-linejoin="round"/>
<path d="M139.39 290.901H213.918V293.304C213.918 294.19 213.752 295.067 213.429 295.885C213.106 296.704 212.632 297.447 212.035 298.074C211.438 298.7 210.729 299.197 209.949 299.536C209.169 299.875 208.333 300.049 207.489 300.049H145.818C144.974 300.049 144.138 299.875 143.358 299.536C142.578 299.197 141.869 298.7 141.272 298.074C140.675 297.447 140.202 296.704 139.879 295.885C139.556 295.067 139.39 294.19 139.39 293.304V290.938V290.901Z" fill="white" stroke="#263238" stroke-linecap="round" stroke-linejoin="round"/>
<path d="M210.174 245.018H143.14V286.45H210.174V245.018Z" fill="#FDB704" stroke="#263238" stroke-width="1.09543" stroke-linecap="round" stroke-linejoin="round"/>
<path d="M178.031 295.482C178.031 295.195 177.95 294.914 177.798 294.676C177.646 294.437 177.429 294.251 177.176 294.141C176.924 294.031 176.645 294.002 176.377 294.058C176.108 294.114 175.862 294.252 175.668 294.456C175.475 294.659 175.343 294.917 175.289 295.199C175.236 295.481 175.263 295.773 175.368 296.038C175.473 296.303 175.65 296.53 175.878 296.69C176.106 296.849 176.373 296.934 176.647 296.934C177.014 296.934 177.366 296.781 177.625 296.509C177.885 296.237 178.031 295.867 178.031 295.482Z" fill="#263238" stroke="#263238" stroke-width="1.09543" stroke-linecap="round" stroke-linejoin="round"/>
<path d="M188.708 311.556H164.599V312.732H188.708V311.556Z" fill="white" stroke="#263238" stroke-linecap="round" stroke-linejoin="round"/>
<path d="M168.156 244.364C168.156 244.364 164.897 243.413 162.537 245.315C160.177 247.218 160.004 252.154 161.45 254.63C162.897 257.106 164.91 258.616 162.357 260.329C159.803 262.042 158.011 263.182 158.371 266.217C158.731 269.252 161.45 273.252 165.796 273.441C170.142 273.629 175.401 269.644 175.401 265.273C175.401 260.903 172.322 258.049 173.408 255.581C174.495 253.113 177.754 249.875 175.221 246.455C172.689 243.036 168.156 244.364 168.156 244.364Z" fill="#263238" stroke="#263238" stroke-linecap="round" stroke-linejoin="round"/>
<path d="M200.071 285.819L192.708 269.39H159.464L153.236 285.819H200.071Z" fill="white" stroke="#263238" stroke-linecap="round" stroke-linejoin="round"/>
<path d="M187.657 285.819L192.708 269.39L176.024 259.857L159.464 269.39L163.395 285.819H187.657Z" fill="white" stroke="#263238" stroke-linecap="round" stroke-linejoin="round"/>
<path d="M173.166 261.498L168.426 264.264C167.554 266.739 166.772 270.536 169.118 272.714C170.571 274.094 176.176 269.68 176.176 269.68C176.176 269.68 180.162 274.239 183.421 272.714C185.733 271.64 184.681 267.335 183.29 264.002L178.121 261.055L173.166 261.498Z" fill="white" stroke="#263238" stroke-linecap="round" stroke-linejoin="round"/>
<path d="M171.457 255.406V262.666L173.221 268.068C173.398 268.615 173.735 269.09 174.183 269.424C174.632 269.759 175.17 269.936 175.721 269.931C176.271 269.927 176.806 269.74 177.25 269.397C177.693 269.055 178.022 268.574 178.19 268.024L179.885 262.558V254.985L171.457 255.406Z" fill="white" stroke="#263238" stroke-linecap="round" stroke-linejoin="round"/>
<path d="M169.637 247.21C169.637 247.21 167.886 243.95 166.917 245.758C165.949 247.566 167.305 251.457 167.886 252.473C168.467 253.49 169.443 251.864 169.443 251.864" fill="white"/>
<path d="M169.637 247.21C169.637 247.21 167.886 243.95 166.917 245.758C165.949 247.566 167.305 251.457 167.886 252.473C168.467 253.49 169.443 251.864 169.443 251.864" stroke="#263238" stroke-linecap="round" stroke-linejoin="round"/>
<path d="M182.134 247.21C182.134 247.21 183.885 243.95 184.854 245.758C185.823 247.566 184.466 251.457 183.885 252.473C183.304 253.49 182.328 251.864 182.328 251.864" fill="white"/>
<path d="M182.134 247.21C182.134 247.21 183.885 243.95 184.854 245.758C185.823 247.566 184.466 251.457 183.885 252.473C183.304 253.49 182.328 251.864 182.328 251.864" stroke="#263238" stroke-linecap="round" stroke-linejoin="round"/>
<path d="M183.013 246.601C183.013 252.329 179.802 260.228 175.837 260.228C171.872 260.228 168.661 252.329 168.661 246.601C168.661 240.872 171.879 236.219 175.837 236.219C179.795 236.219 183.013 240.865 183.013 246.601Z" fill="white" stroke="#263238" stroke-linecap="round" stroke-linejoin="round"/>
<path d="M173.062 242.085C173.062 242.085 174.515 238.665 176.868 242.085C179.221 245.504 178.135 247.98 180.128 248.735C180.639 248.972 181.214 249.006 181.748 248.832C182.281 248.657 182.736 248.284 183.027 247.784C183.027 247.784 188.646 243.798 183.027 237.337C181.93 236.087 180.58 235.112 179.075 234.483C177.571 233.855 175.951 233.59 174.335 233.707C171.436 233.903 171.076 237.7 171.076 237.7C171.076 237.7 168.896 237.133 167.997 239.791C167.097 242.448 168.896 249.86 168.896 247.965C168.896 246.07 171.256 240.183 173.062 242.085Z" fill="#263238" stroke="#263238" stroke-linecap="round" stroke-linejoin="round"/>
<path d="M273.271 212.21V205.604H254.725V212.21C254.727 214.367 254.031 216.46 252.753 218.149L251.943 219.252H276.053L275.236 218.178C273.957 216.479 273.264 214.375 273.271 212.21Z" fill="white" stroke="#263238" stroke-linecap="round" stroke-linejoin="round"/>
<g style="mix-blend-mode:multiply">
<path d="M253.583 216.835H274.406C273.661 215.418 273.271 213.827 273.271 212.21V205.604H254.725V212.21C254.726 213.828 254.333 215.42 253.583 216.835Z" fill="#FDB704"/>
</g>
<path d="M273.271 206.598H254.725V209.385H273.271V206.598Z" fill="#263238" stroke="#263238" stroke-width="1.09543" stroke-linecap="round" stroke-linejoin="round"/>
<path d="M294.833 149.041H233.162C229.612 149.041 226.734 152.061 226.734 155.786V200.943C226.734 204.668 229.612 207.687 233.162 207.687H294.833C298.384 207.687 301.262 204.668 301.262 200.943V155.786C301.262 152.061 298.384 149.041 294.833 149.041Z" fill="#263238" stroke="#263238" stroke-width="1.09543" stroke-linecap="round" stroke-linejoin="round"/>
<path d="M226.734 198.568H301.262V200.935C301.262 201.821 301.096 202.698 300.773 203.516C300.45 204.334 299.976 205.078 299.379 205.704C298.782 206.331 298.074 206.827 297.294 207.166C296.514 207.505 295.678 207.68 294.833 207.68H233.162C232.318 207.68 231.482 207.505 230.702 207.166C229.922 206.827 229.214 206.331 228.617 205.704C228.02 205.078 227.546 204.334 227.223 203.516C226.9 202.698 226.734 201.821 226.734 200.935V198.568Z" fill="white" stroke="#263238" stroke-linecap="round" stroke-linejoin="round"/>
<path d="M297.512 152.692H230.478V194.125H297.512V152.692Z" fill="#FDB704" stroke="#263238" stroke-width="1.09543" stroke-linecap="round" stroke-linejoin="round"/>
<path d="M265.368 203.128C265.368 202.841 265.287 202.56 265.135 202.321C264.983 202.082 264.767 201.896 264.514 201.786C264.261 201.676 263.983 201.648 263.714 201.704C263.446 201.76 263.199 201.898 263.005 202.101C262.812 202.304 262.68 202.563 262.627 202.845C262.573 203.126 262.601 203.418 262.705 203.683C262.81 203.949 262.988 204.176 263.215 204.335C263.443 204.495 263.71 204.58 263.984 204.58C264.351 204.58 264.703 204.427 264.963 204.155C265.222 203.882 265.368 203.513 265.368 203.128Z" fill="#263238" stroke="#263238" stroke-width="1.09543" stroke-linecap="round" stroke-linejoin="round"/>
<path d="M276.053 219.223H251.943V220.399H276.053V219.223Z" fill="white" stroke="#263238" stroke-linecap="round" stroke-linejoin="round"/>
<path d="M287.284 193.828L280.045 177.682H246.802L240.691 193.828H287.284Z" fill="white" stroke="#263238" stroke-linecap="round" stroke-linejoin="round"/>
<path d="M280.045 193.828V177.682L267.174 169.935L263.361 168.149L259.071 169.935L246.802 177.682V193.828H280.045Z" fill="white" stroke="#263238" stroke-linecap="round" stroke-linejoin="round"/>
<path d="M260.365 180.048L262.635 183.794L261.5 193.661H265.555L263.61 183.794L266.205 179.881L262.801 175.794L260.365 180.048Z" fill="#263238" stroke="#263238" stroke-linecap="round" stroke-linejoin="round"/>
<path d="M263.112 179.024L259.555 181.921L256.96 171.539L259.071 169.935H267.174L268.96 171.205L267.499 182.088L263.112 179.024Z" fill="white" stroke="#263238" stroke-linecap="round" stroke-linejoin="round"/>
<path d="M258.794 163.698V170.966L263.112 179.024L267.23 170.864V163.277L258.794 163.698Z" fill="white" stroke="#263238" stroke-linecap="round" stroke-linejoin="round"/>
<path d="M256.974 155.502C256.974 155.502 255.23 152.242 254.262 154.05C253.293 155.858 254.649 159.742 255.23 160.765C255.812 161.789 256.78 160.156 256.78 160.156" fill="white"/>
<path d="M256.974 155.502C256.974 155.502 255.23 152.242 254.262 154.05C253.293 155.858 254.649 159.742 255.23 160.765C255.812 161.789 256.78 160.156 256.78 160.156" stroke="#263238" stroke-linecap="round" stroke-linejoin="round"/>
<path d="M269.479 155.502C269.479 155.502 271.222 152.242 272.191 154.05C273.16 155.858 271.804 159.742 271.222 160.765C270.641 161.789 269.672 160.156 269.672 160.156" fill="white"/>
<path d="M269.479 155.502C269.479 155.502 271.222 152.242 272.191 154.05C273.16 155.858 271.804 159.742 271.222 160.765C270.641 161.789 269.672 160.156 269.672 160.156" stroke="#263238" stroke-linecap="round" stroke-linejoin="round"/>
<path d="M270.357 154.893C270.357 160.621 267.147 168.527 263.181 168.527C259.216 168.527 256.04 160.621 256.04 154.893C256.04 149.164 259.251 144.511 263.216 144.511C267.181 144.511 270.357 149.157 270.357 154.893Z" fill="white" stroke="#263238" stroke-linecap="round" stroke-linejoin="round"/>
<path d="M254.531 186.001L259.638 193.827H266.87L272.205 188.041L268.8 183.62L273.015 183.278L272.53 173.412L268.96 171.205L262.96 193.66L256.96 171.539L254.04 173.412L252.905 182.262L256.476 182.937L254.531 186.001Z" fill="white" stroke="#263238" stroke-linecap="round" stroke-linejoin="round"/>
<path d="M255.992 156.402C255.992 156.402 257.597 156.62 257.286 156.061C256.974 155.502 257.286 153.513 257.286 153.513C257.655 153.202 257.936 152.79 258.095 152.322C258.42 151.473 257.611 150.275 257.611 149.258C257.611 148.242 262.635 150.275 263.444 150.275C264.254 150.275 268.8 149.084 268.8 149.084C268.8 149.084 267.984 152.148 268.475 152.489C268.967 152.83 269.285 154.362 269.285 154.362C269.285 154.362 268.8 157.085 268.96 157.593C269.119 158.101 270.094 158.442 270.261 157.934C270.427 157.426 270.42 152.997 270.42 152.997C270.42 152.997 271.555 153.172 271.555 150.819C271.555 148.467 270.261 143.16 267.984 142.144C265.707 141.127 260.531 141.12 258.42 142.311C256.31 143.501 254.85 148.946 255.341 150.819C255.697 152.66 255.914 154.526 255.992 156.402Z" fill="#263238" stroke="#263238" stroke-linecap="round" stroke-linejoin="round"/>
<path d="M185.927 122.113V115.507H167.381V122.113C167.381 124.266 166.689 126.356 165.416 128.045L164.599 129.127H188.708L187.899 128.045C186.621 126.359 185.926 124.268 185.927 122.113Z" fill="white" stroke="#263238" stroke-linecap="round" stroke-linejoin="round"/>
<g style="mix-blend-mode:multiply">
<path d="M166.246 126.738H187.068C186.319 125.324 185.926 123.732 185.927 122.113V115.507H167.381V122.113C167.381 123.731 166.991 125.322 166.246 126.738Z" fill="#FDB704"/>
</g>
<path d="M185.927 116.501H167.381V119.289H185.927V116.501Z" fill="#263238" stroke="#263238" stroke-width="1.09543" stroke-linecap="round" stroke-linejoin="round"/>
<path d="M207.489 58.9443H145.818C142.268 58.9443 139.39 61.964 139.39 65.6889V110.846C139.39 114.571 142.268 117.591 145.818 117.591H207.489C211.04 117.591 213.918 114.571 213.918 110.846V65.6889C213.918 61.964 211.04 58.9443 207.489 58.9443Z" fill="#263238" stroke="#263238" stroke-width="1.09543" stroke-linecap="round" stroke-linejoin="round"/>
<path d="M139.39 108.472H213.918V110.838C213.918 112.627 213.241 114.343 212.035 115.608C210.829 116.872 209.194 117.583 207.489 117.583H145.818C144.113 117.583 142.478 116.872 141.272 115.608C140.067 114.343 139.39 112.627 139.39 110.838V108.472Z" fill="white" stroke="#263238" stroke-linecap="round" stroke-linejoin="round"/>
<path d="M210.174 62.5889H143.14V104.022H210.174V62.5889Z" fill="#FDB704" stroke="#263238" stroke-width="1.09543" stroke-linecap="round" stroke-linejoin="round"/>
<path d="M176.654 114.475C177.414 114.475 178.031 113.829 178.031 113.031C178.031 112.233 177.414 111.586 176.654 111.586C175.893 111.586 175.277 112.233 175.277 113.031C175.277 113.829 175.893 114.475 176.654 114.475Z" fill="#263238" stroke="#263238" stroke-width="1.09543" stroke-linecap="round" stroke-linejoin="round"/>
<path d="M188.708 129.127H164.599V130.303H188.708V129.127Z" fill="white" stroke="#263238" stroke-linecap="round" stroke-linejoin="round"/>
<path d="M200.071 103.84L192.708 87.4102H159.464L153.236 103.84H200.071Z" fill="white" stroke="#263238" stroke-linecap="round" stroke-linejoin="round"/>
<path d="M164.897 66.8572C164.897 66.8572 163.7 72.716 164.897 75.1045C166.094 77.4931 167.782 80.3535 166.869 82.4226C165.955 84.4917 165.049 84.9636 164.744 88.9566C164.44 92.9496 170.509 100.885 177.484 100.086C184.46 99.2876 188.556 93.2473 187.338 88.3177C186.12 83.3882 184.155 82.7493 184.757 79.6057C185.359 76.4621 186.882 74.3567 186.141 70.0661C185.401 65.7754 181.747 58.7695 177.353 57.1796C172.959 55.5896 170.191 57.8185 168.557 60.8096C166.924 63.8007 165.187 65.6157 164.897 66.8572Z" fill="#263238" stroke="#263238" stroke-linecap="round" stroke-linejoin="round"/>
<path d="M187.657 103.84L192.708 87.4103L176.024 77.8779L159.464 87.4103L163.395 103.84H187.657Z" fill="white" stroke="#263238" stroke-linecap="round" stroke-linejoin="round"/>
<path d="M169.519 81.6241L167.789 87.1925L171.734 88.3033L168.246 91.0113L175.526 98.4818L182.349 91.8026L179.013 88.463L183.712 87.1925L182.48 81.5733L176.024 77.8779L169.519 81.6241Z" fill="white" stroke="#263238" stroke-linecap="round" stroke-linejoin="round"/>
<path d="M171.457 73.4279V80.6952L175.768 93.8721L179.885 80.5863V73.0068L171.457 73.4279Z" fill="white" stroke="#263238" stroke-linecap="round" stroke-linejoin="round"/>
<path d="M169.637 65.2315C169.637 65.2315 167.886 61.9717 166.917 63.7795C165.949 65.5872 167.305 69.4713 167.886 70.495C168.467 71.5186 169.443 69.8779 169.443 69.8779" fill="white"/>
<path d="M169.637 65.2315C169.637 65.2315 167.886 61.9717 166.917 63.7795C165.949 65.5872 167.305 69.4713 167.886 70.495C168.467 71.5186 169.443 69.8779 169.443 69.8779" stroke="#263238" stroke-linecap="round" stroke-linejoin="round"/>
<path d="M182.134 65.2315C182.134 65.2315 183.885 61.9717 184.854 63.7795C185.823 65.5872 184.466 69.4713 183.885 70.495C183.304 71.5186 182.328 69.8779 182.328 69.8779" fill="white"/>
<path d="M182.134 65.2315C182.134 65.2315 183.885 61.9717 184.854 63.7795C185.823 65.5872 184.466 69.4713 183.885 70.495C183.304 71.5186 182.328 69.8779 182.328 69.8779" stroke="#263238" stroke-linecap="round" stroke-linejoin="round"/>
<path d="M183.013 64.6142C183.013 70.3424 179.802 78.2485 175.837 78.2485C171.872 78.2485 168.661 70.3496 168.661 64.6142C168.661 58.8788 171.879 54.2324 175.837 54.2324C179.795 54.2324 183.013 58.8861 183.013 64.6142Z" fill="white" stroke="#263238" stroke-linecap="round" stroke-linejoin="round"/>
<path d="M174.46 57.1291C174.46 55.4447 173.976 53.1796 171.747 53.9637C169.125 54.9002 167.395 60.7808 166.128 63.1766C165.479 64.3008 165.06 65.5542 164.897 66.8574C164.274 70.923 167.492 74.3062 167.492 74.3062C167.492 74.3062 166.73 70.0155 167.187 67.1479C167.443 65.5506 168.211 64.9698 169.554 64.3963C172.626 63.1621 174.46 60.7808 174.46 57.1291Z" fill="#263238" stroke="#263238" stroke-linecap="round" stroke-linejoin="round"/>
<path d="M188.376 65.1223C187.397 63.3933 186.18 61.8252 184.764 60.4687C183.096 58.719 182.19 54.4284 178.398 52.9909C174.605 51.5534 172.938 53.47 173.09 56.3377C173.113 56.7963 173.169 57.2525 173.256 57.7026C173.253 57.7243 173.253 57.7463 173.256 57.768C173.256 57.768 173.256 57.8406 173.325 57.9785C173.438 58.7454 173.788 59.4521 174.322 59.9895L174.419 60.0621C175.195 61.2375 176.076 62.3338 177.048 63.3364C180.231 66.676 184.176 69.6961 184.328 73.1955C184.446 76.0559 183.47 78.2775 182.944 81.1815H182.813C182.512 82.7351 181.894 84.2016 181 85.4794C179.616 87.229 179.477 88.4995 182.667 88.6593C186.93 88.8698 189.054 82.9384 189.643 79.3374C190.226 76.006 190.249 72.5932 189.712 69.2533C189.478 67.8107 189.027 66.4163 188.376 65.1223Z" fill="#263238" stroke="#263238" stroke-linecap="round" stroke-linejoin="round"/>
<path d="M98.5893 212.21V205.604H80.0437V212.21C80.0417 214.366 79.3469 216.458 78.0715 218.149L77.2618 219.252H101.364L100.555 218.178C99.2752 216.479 98.5825 214.375 98.5893 212.21Z" fill="white" stroke="#263238" stroke-linecap="round" stroke-linejoin="round"/>
<g style="mix-blend-mode:multiply">
<path d="M78.8881 216.835H99.7103C98.9659 215.418 98.5754 213.827 98.5755 212.21V205.604H80.0299V212.21C80.0275 213.828 79.6347 215.419 78.8881 216.835Z" fill="#FDB704"/>
</g>
<path d="M98.5893 206.598H80.0437V209.385H98.5893V206.598Z" fill="#263238" stroke="#263238" stroke-width="1.09543" stroke-linecap="round" stroke-linejoin="round"/>
<path d="M120.152 149.04H58.4809C54.9305 149.04 52.0522 152.06 52.0522 155.785V200.942C52.0522 204.667 54.9305 207.686 58.4809 207.686H120.152C123.702 207.686 126.581 204.667 126.581 200.942V155.785C126.581 152.06 123.702 149.04 120.152 149.04Z" fill="#263238" stroke="#263238" stroke-width="1.09543" stroke-linecap="round" stroke-linejoin="round"/>
<path d="M52.0522 198.568H126.581V200.935C126.581 201.821 126.414 202.698 126.091 203.516C125.768 204.334 125.295 205.078 124.698 205.704C124.101 206.331 123.392 206.827 122.612 207.166C121.832 207.505 120.996 207.68 120.152 207.68H58.4809C57.6367 207.68 56.8007 207.505 56.0208 207.166C55.2408 206.827 54.5321 206.331 53.9352 205.704C53.3382 205.078 52.8647 204.334 52.5416 203.516C52.2185 202.698 52.0522 201.821 52.0522 200.935V198.568Z" fill="white" stroke="#263238" stroke-linecap="round" stroke-linejoin="round"/>
<path d="M122.83 152.692H55.796V194.125H122.83V152.692Z" fill="#FDB704" stroke="#263238" stroke-width="1.09543" stroke-linecap="round" stroke-linejoin="round"/>
<path d="M90.6866 203.128C90.6866 202.841 90.6054 202.56 90.4533 202.321C90.3013 202.082 90.0851 201.896 89.8322 201.786C89.5793 201.676 89.301 201.648 89.0326 201.704C88.7641 201.76 88.5175 201.898 88.3239 202.101C88.1304 202.304 87.9986 202.563 87.9452 202.845C87.8918 203.126 87.9192 203.418 88.0239 203.683C88.1287 203.949 88.3061 204.176 88.5337 204.335C88.7613 204.495 89.0289 204.58 89.3026 204.58C89.6696 204.58 90.0217 204.427 90.2812 204.155C90.5408 203.882 90.6866 203.513 90.6866 203.128Z" fill="#263238" stroke="#263238" stroke-width="1.09543" stroke-linecap="round" stroke-linejoin="round"/>
<path d="M101.371 219.223H77.2618V220.399H101.371V219.223Z" fill="white" stroke="#263238" stroke-linecap="round" stroke-linejoin="round"/>
<path d="M112.727 193.943L105.364 177.507H72.1202L65.8992 193.943H112.727Z" fill="white" stroke="#263238" stroke-linecap="round" stroke-linejoin="round"/>
<path d="M105.364 193.944V177.507L94.5964 169.768L88.6798 167.975L82.7632 169.768L72.1202 177.507V193.944H105.364Z" fill="white" stroke="#263238" stroke-linecap="round" stroke-linejoin="round"/>
<path d="M85.116 166.537C85.116 166.537 82.7494 167.263 82.2719 167.779C81.7944 168.294 81.4415 170.886 80.9709 172.251C80.5004 173.616 78.9572 175.975 79.4347 176.099C79.9122 176.222 83.9327 174.109 83.9327 174.109L88.5483 179.598L92.9287 173.862C92.9287 173.862 96.3887 176.599 96.5963 176.222C96.8039 175.844 95.0601 171.38 94.9424 169.514C94.8248 167.648 92.2159 167.031 90.6797 166.907C89.1434 166.784 85.116 166.537 85.116 166.537Z" fill="white" stroke="#263238" stroke-linecap="round" stroke-linejoin="round"/>
<path d="M84.1125 163.532V170.792L88.4306 179.134L92.548 170.69V163.104L84.1125 163.532Z" fill="white" stroke="#263238" stroke-linecap="round" stroke-linejoin="round"/>
<path d="M82.2927 155.364C82.2927 155.364 80.5488 152.112 79.58 153.912C78.6112 155.713 79.9676 159.611 80.5488 160.628C81.1301 161.644 82.0989 160.018 82.0989 160.018" fill="white"/>
<path d="M82.2927 155.364C82.2927 155.364 80.5488 152.112 79.58 153.912C78.6112 155.713 79.9676 159.611 80.5488 160.628C81.1301 161.644 82.0989 160.018 82.0989 160.018" stroke="#263238" stroke-linecap="round" stroke-linejoin="round"/>
<path d="M94.804 155.364C94.804 155.364 96.5478 152.112 97.5166 153.912C98.4854 155.713 97.1291 159.611 96.5478 160.628C95.9665 161.644 94.9977 160.018 94.9977 160.018" fill="white"/>
<path d="M94.804 155.364C94.804 155.364 96.5478 152.112 97.5166 153.912C98.4854 155.713 97.1291 159.611 96.5478 160.628C95.9665 161.644 94.9977 160.018 94.9977 160.018" stroke="#263238" stroke-linecap="round" stroke-linejoin="round"/>
<path d="M95.6759 154.717C95.6759 160.445 92.4651 168.352 88.4999 168.352C84.5347 168.352 81.3239 160.445 81.3239 154.717C81.3239 148.989 84.5347 144.343 88.4999 144.343C92.4651 144.343 95.6759 148.989 95.6759 154.717Z" fill="white" stroke="#263238" stroke-linecap="round" stroke-linejoin="round"/>
<path d="M94.1535 151.843C94.1535 151.843 93.6484 153.295 94.2504 153.948C94.8525 154.601 94.7556 155.523 94.6518 156.787C94.548 158.05 94.8525 158.79 95.2538 158.369C95.6552 157.948 96.0565 152.053 96.0565 151.632C96.0565 151.211 94.1535 151.843 94.1535 151.843Z" fill="#263238" stroke="#263238" stroke-linecap="round" stroke-linejoin="round"/>
<path d="M81.4069 153.839L81.6076 157.106C81.6865 157.136 81.7703 157.148 81.854 157.143C81.9376 157.137 82.0193 157.114 82.0943 157.075C82.1692 157.036 82.2359 156.981 82.2902 156.914C82.3444 156.847 82.3853 156.769 82.4103 156.685C82.611 156.054 82.1058 154.05 82.611 152.997C83.1161 151.944 85.0191 151.422 85.116 150.681C85.2129 149.941 84.1126 148.576 84.1126 148.053C84.1126 147.53 84.4171 147 86.9221 149.505C89.4272 152.01 94.0497 152.554 96.4579 151.923C98.866 151.291 95.9596 147.501 95.3576 146.659C94.7556 145.817 96.963 146.449 95.759 144.343C94.5549 142.238 90.3337 140.866 86.1194 142.448C81.9051 144.031 79.497 146.238 80.099 148.452C80.701 150.667 81.4069 153.839 81.4069 153.839Z" fill="#263238" stroke="#263238" stroke-linecap="round" stroke-linejoin="round"/>
<path d="M176.938 207.534V230.338" stroke="#263238" stroke-width="2" stroke-miterlimit="10"/>
<path d="M173.415 229.257L176.937 235.646L180.453 229.257H173.415Z" fill="#263238"/>
<path d="M176.938 158.711V135.907" stroke="#263238" stroke-width="2" stroke-miterlimit="10"/>
<path d="M180.453 136.989L176.937 130.601L173.415 136.989H180.453Z" fill="#263238"/>
<path d="M153.672 183.127H131.937" stroke="#263238" stroke-width="2" stroke-miterlimit="10"/>
<path d="M132.968 179.432L126.871 183.127L132.968 186.815V179.432Z" fill="#263238"/>
<path d="M139.113 125.954L123.218 142.63" stroke="#263238" stroke-width="2" stroke-miterlimit="10"/>
<path d="M135.895 124.103L142.69 122.193L140.87 129.33L135.895 124.103Z" fill="#263238"/>
<path d="M121.453 139.254L119.633 146.39L126.435 144.481L121.453 139.254Z" fill="#263238"/>
<path d="M215.855 125.954L231.751 142.63" stroke="#263238" stroke-width="2" stroke-miterlimit="10"/>
<path d="M214.091 129.33L212.271 122.193L219.066 124.11L214.091 129.33Z" fill="#263238"/>
<path d="M228.533 144.481L235.328 146.39L233.508 139.254L228.533 144.481Z" fill="#263238"/>
<path d="M139.113 237.105L123.218 220.429" stroke="#263238" stroke-width="2" stroke-miterlimit="10"/>
<path d="M140.87 233.736L142.697 240.866L135.895 238.956L140.87 233.736Z" fill="#263238"/>
<path d="M126.435 218.584L119.633 216.675L121.453 223.804L126.435 218.584Z" fill="#263238"/>
<path d="M215.855 237.105L231.751 220.429" stroke="#263238" stroke-width="2" stroke-miterlimit="10"/>
<path d="M219.066 238.956L212.271 240.866L214.091 233.736L219.066 238.956Z" fill="#263238"/>
<path d="M233.508 223.804L235.328 216.675L228.533 218.584L233.508 223.804Z" fill="#263238"/>
<path d="M200.203 183.127H221.938" stroke="#263238" stroke-width="2" stroke-miterlimit="10"/>
<path d="M220.907 186.815L227.004 183.127L220.907 179.432V186.815Z" fill="#263238"/>
<path d="M177.782 184.833H175.65V192.964H177.782C180.993 192.964 181.982 191.447 181.982 188.761C181.982 186.074 180.993 184.833 177.782 184.833Z" fill="#263238"/>
<path d="M176.654 154.231C171.275 154.231 166.017 155.905 161.545 159.04C157.072 162.175 153.587 166.631 151.528 171.845C149.47 177.058 148.931 182.795 149.981 188.33C151.03 193.864 153.62 198.948 157.424 202.938C161.227 206.929 166.073 209.646 171.348 210.747C176.624 211.848 182.092 211.283 187.061 209.123C192.03 206.964 196.278 203.307 199.266 198.615C202.254 193.923 203.849 188.406 203.849 182.763C203.849 175.196 200.984 167.939 195.884 162.588C190.784 157.237 183.866 154.231 176.654 154.231ZM176.654 207.091C172.066 207.091 167.581 205.664 163.767 202.99C159.952 200.316 156.979 196.516 155.224 192.069C153.468 187.622 153.009 182.729 153.904 178.008C154.799 173.288 157.008 168.952 160.252 165.548C163.496 162.145 167.629 159.827 172.128 158.888C176.628 157.949 181.292 158.431 185.53 160.273C189.769 162.115 193.392 165.234 195.94 169.236C198.489 173.238 199.85 177.943 199.85 182.756C199.844 189.208 197.398 195.395 193.05 199.957C188.701 204.52 182.804 207.086 176.654 207.091Z" fill="#263238"/>
<path d="M181.373 177.188C181.373 174.821 180.384 173.659 177.553 173.659H175.65V180.774H177.553C180.342 180.774 181.373 179.547 181.373 177.188Z" fill="#263238"/>
<path d="M176.654 160.098C172.38 160.096 168.202 161.425 164.648 163.914C161.095 166.404 158.324 169.944 156.688 174.086C155.052 178.228 154.624 182.786 155.457 187.183C156.291 191.581 158.349 195.62 161.37 198.79C164.392 201.961 168.242 204.12 172.434 204.994C176.625 205.868 180.97 205.419 184.918 203.702C188.866 201.986 192.24 199.08 194.613 195.351C196.986 191.623 198.252 187.24 198.251 182.756C198.246 176.748 195.968 170.989 191.919 166.741C187.87 162.492 182.38 160.103 176.654 160.098ZM180.986 196.02V201.102H178.218V196.223H175.671V201.102H172.903V196.231H166.779V192.405H167.983C168.246 192.359 168.489 192.225 168.674 192.024C168.86 191.823 168.979 191.564 169.014 191.287V175.133C168.98 174.855 168.861 174.596 168.676 174.394C168.49 174.193 168.247 174.06 167.983 174.015H166.779V170.218H172.903V165.31H175.671V170.218H177.844H178.273V165.31H181.041V170.436C185.366 171.082 187.65 173.202 187.65 176.912C187.65 180.186 185.878 181.791 182.619 182.495V182.64C186.411 183.235 188.501 185.174 188.501 188.702C188.445 192.927 185.643 195.359 180.986 196.02Z" fill="#263238"/>
</svg>
