<svg width="1712" height="680" viewBox="0 0 1712 680" fill="none" xmlns="http://www.w3.org/2000/svg">
<path d="M1 666.734L16.8519 651.958C32.7037 637.183 64.4074 607.631 96.1111 604.198C127.815 600.765 159.519 623.449 191.222 642.887C222.926 662.324 254.63 678.515 286.333 678.989C318.037 679.464 349.741 664.224 381.444 617.072C413.148 569.92 444.852 490.856 476.556 483.402C508.259 475.948 539.963 540.104 571.667 524.262C603.37 508.42 635.074 412.581 666.778 368.768C698.482 324.954 730.185 333.166 761.889 328.469C793.593 323.772 825.296 306.165 857 299.848C888.704 293.531 920.408 298.502 952.111 301.206C983.815 303.91 1015.52 304.347 1047.22 282.288C1078.93 260.23 1110.63 215.676 1142.33 221.95C1174.04 228.224 1205.74 285.325 1237.44 307.919C1269.15 330.512 1300.85 318.598 1332.56 299.37C1364.26 280.142 1395.96 253.6 1427.67 249.178C1459.37 244.757 1491.07 262.456 1522.78 222.592C1554.48 182.728 1586.19 85.2995 1617.89 39.627C1649.59 -6.04539 1681.3 0.0377841 1697.15 3.07937L1713 6.12096" stroke="black" stroke-opacity="0.7"/>
</svg>
