<svg width="346" height="363" viewBox="0 0 346 363" fill="none" xmlns="http://www.w3.org/2000/svg">
<path d="M225.364 29.1058C199.891 29.5631 180.252 51.4157 158.447 65.2388C125.522 86.1113 83.2337 90.3511 55.4222 118.237C36.3853 137.352 26.988 166.131 29.6452 193.625C32.3025 221.118 46.6961 246.891 67.5115 263.836C80.784 274.632 96.361 281.913 112.256 287.613C128.366 293.377 145.14 297.653 162.163 297.878C185.754 298.19 208.929 290.705 230.27 280.142C245.113 272.802 259.424 263.829 271.098 251.726C282.128 240.299 290.585 226.258 296.377 211.172C310.694 173.885 308.417 131.145 296.003 93.1099C285.734 61.6523 260.628 28.4669 225.364 29.1058Z" fill="white"/>
<path opacity="0.7" d="M225.364 29.1058C199.891 29.5631 180.252 51.4157 158.447 65.2388C125.522 86.1113 83.2337 90.3511 55.4222 118.237C36.3853 137.352 26.988 166.131 29.6452 193.625C32.3025 221.118 46.6961 246.891 67.5115 263.836C80.784 274.632 96.361 281.913 112.256 287.613C128.366 293.377 145.14 297.653 162.163 297.878C185.754 298.19 208.929 290.705 230.27 280.142C245.113 272.802 259.424 263.829 271.098 251.726C282.128 240.299 290.585 226.258 296.377 211.172C310.694 173.885 308.417 131.145 296.003 93.1099C285.734 61.6523 260.628 28.4669 225.364 29.1058Z" fill="white"/>
<path opacity="0.1" d="M241.155 182.988C240.975 177.522 240.636 171.692 240.076 165.659C239.321 153.607 237.882 142.354 235.273 135.276C220.907 132.19 146.275 137.94 146.22 137.94L145.756 135.762L145.569 134.898L145.237 133.381L145.147 133.032C144.663 130.985 144.116 128.959 143.479 126.948C143.479 126.948 86.9014 121.649 68.1343 126.789C68.1343 126.963 68.1343 127.13 68.1343 127.304L68.1897 132.161C68.245 141.563 68.0374 150.384 68.5011 160.069V160.141C68.4113 160.133 68.321 160.133 68.2312 160.141C67.5029 160.242 66.8155 160.553 66.2451 161.038C65.6747 161.524 65.2436 162.166 64.9996 162.893C64.8133 163.456 64.7449 164.056 64.7989 164.65L65.048 167.706C65.048 167.757 65.048 167.8 65.048 167.851C65.74 175.561 66.432 183.199 66.432 183.199C66.432 183.199 66.7918 183.235 67.38 183.264L70.4871 183.497C63.8716 184.135 56.6471 193.298 56.9654 201.175C57.2838 209.052 50.0454 223.884 51.8516 232.393C53.2356 239.043 60.3562 249.737 63.8232 257.861L63.5533 259.472L48.0732 292.084C49.1112 290.487 58.4532 333.103 101.842 324.079L132.712 271.314C136.155 268.589 139.306 265.481 142.109 262.043C143.292 260.809 144.276 259.382 145.022 257.817C146.125 255.97 146.966 253.965 147.521 251.864C147.659 251.312 147.804 250.768 147.957 250.209C150.475 243.479 153.839 234.295 156.302 227.935C188.826 226.919 222.976 224.835 240.124 220.602H240.159C241.819 208.769 241.854 195.49 241.155 182.988ZM74.127 212.805C73.8586 210.839 73.6968 208.859 73.6426 206.874C74.0232 208.965 74.4384 211.048 74.8744 213.139C74.6253 213.023 74.3762 212.907 74.127 212.805Z" fill="black"/>
<path d="M44.5372 290.001C44.5372 290.001 58.4326 333.103 101.842 324.079C101.842 324.079 111.474 276.635 119.543 269.629C124.747 265.128 136.241 257.055 138.698 251.211C141.154 245.366 151.022 217.611 152.932 214.272C154.842 210.932 132.227 172.505 132.227 172.505L84.5902 198.292L58.0866 247.66C58.0866 247.66 53.0004 279.604 44.5372 290.001Z" fill="white"/>
<path d="M57.6229 251.508C57.6229 251.508 54.2252 278.159 42.994 292.084" stroke="#263238" stroke-linecap="round" stroke-linejoin="round"/>
<path d="M101.842 324.078C101.842 324.078 111.419 278.173 119.543 269.628C119.543 269.628 137.895 258.434 141.203 245.257C143.493 236.131 147.659 225.611 149.652 220.834" stroke="#263238" stroke-linecap="round" stroke-linejoin="round"/>
<path d="M105.703 222.308C105.011 221.843 116.81 231.746 117.266 245.278" stroke="#263238" stroke-linecap="round" stroke-linejoin="round"/>
<path d="M233.841 214.01C195.587 223.448 72.3832 222.207 72.3832 222.207C71.3452 219.912 70.0927 214.133 68.8817 207.44C66.4597 194.001 64.1969 176.875 64.1969 176.875L60.121 176.577C60.121 176.577 59.429 168.94 58.737 161.23C58.045 153.52 62.197 153.527 62.197 153.527L61.8994 126.839L61.8233 120.174C80.5903 115.034 137.168 120.334 137.168 120.334L138.933 126.767L139.915 131.326L228.962 128.69C237.128 150.841 233.841 214.01 233.841 214.01Z" fill="#FDB704"/>
<path d="M219.047 149.268L160.642 152.332C158.238 152.458 156.387 154.605 156.507 157.127L157.1 169.578C157.22 172.1 159.266 174.042 161.67 173.916L220.075 170.852C222.479 170.726 224.33 168.58 224.21 166.058L223.617 153.607C223.497 151.085 221.45 149.142 219.047 149.268Z" fill="#263238"/>
<path d="M223.89 178.987L224.077 181.056L156.828 183.786L156.773 181.928L223.89 178.987Z" fill="#263238"/>
<path d="M224.222 186.183L224.284 188.041L157.043 190.648L156.98 188.796L224.222 186.183Z" fill="#263238"/>
<path opacity="0.3" d="M228.948 128.691C228.948 128.691 238.872 178.059 233.841 214.01C233.841 214.01 171.09 221.735 149.604 220.486L148.725 208.471L150.524 208.18C150.524 208.18 141.86 139.602 139.895 131.326C139.895 131.326 214.624 125.598 228.948 128.691Z" fill="black"/>
<path opacity="0.8" d="M146.656 208.296L147.396 217.378C147.396 217.378 84.1472 220.282 78.5835 218.17C73.0198 216.057 78.8811 212.688 93.593 211.476C108.305 210.263 146.656 208.296 146.656 208.296Z" fill="white"/>
<path d="M108.893 169.775C112.084 169.775 114.671 167.318 114.671 164.286C114.671 161.255 112.084 158.798 108.893 158.798C105.702 158.798 103.115 161.255 103.115 164.286C103.115 167.318 105.702 169.775 108.893 169.775Z" fill="#263238"/>
<path d="M64.1969 176.867C65.5005 192.225 68.2401 207.411 72.3763 222.206C99.2052 221.967 126.027 221.654 152.849 220.754C179.671 219.854 207.233 217.952 233.813 214.01C233.813 214.01 238.574 169.898 228.921 128.69C218.25 126.36 140.165 131.311 140.165 131.311" stroke="#263238" stroke-linecap="round" stroke-linejoin="round"/>
<path d="M146.656 208.297L147.396 217.379L87.192 218.831C84.7077 219.056 80.8395 219.397 78.5559 218.17C77.5179 217.611 76.7705 216.246 77.2618 215.128C77.7047 214.127 78.8673 213.771 79.9053 213.553C87.2681 211.963 94.7833 211.295 102.278 210.714C118.323 209.466 134.393 208.621 150.489 208.181C150.15 208.181 146.227 174.211 145.791 171.075C144.088 158.805 142.469 146.485 140.365 134.281C139.606 129.556 138.521 124.895 137.12 120.335C112.319 118.476 86.417 116.755 61.7679 120.175C61.9963 131.696 61.588 141.955 62.1485 153.527" stroke="#263238" stroke-linecap="round" stroke-linejoin="round"/>
<path d="M71.456 218.787C71.3078 218.317 71.2194 217.829 71.193 217.335" stroke="#263238" stroke-linecap="round" stroke-linejoin="round"/>
<path d="M71.5944 214.583C72.5147 212.166 75.2758 209.436 82.784 208.565C96.4787 206.967 126.332 204.092 143.846 203.396" stroke="#263238" stroke-linecap="round" stroke-linejoin="round" stroke-dasharray="3.91 3.91"/>
<path d="M145.202 203.345L146.586 203.294L146.4 201.842" stroke="#263238" stroke-linecap="round" stroke-linejoin="round"/>
<path d="M146.012 199.062C142.863 175.3 139.376 151.712 135.383 128.081" stroke="#263238" stroke-linecap="round" stroke-linejoin="round" stroke-dasharray="3.88 3.88"/>
<path d="M135.161 126.694L134.912 125.242L133.528 125.141" stroke="#263238" stroke-linecap="round" stroke-linejoin="round"/>
<path d="M130.733 124.952C119.225 124.146 86.5001 122.135 64.6675 123.703" stroke="#263238" stroke-linecap="round" stroke-linejoin="round" stroke-dasharray="4.07 4.07"/>
<path d="M63.2558 123.812L61.8718 123.928" stroke="#263238" stroke-linecap="round" stroke-linejoin="round"/>
<path d="M60.121 176.577L58.4671 158.064C58.4169 157.508 58.4741 156.947 58.6354 156.415C58.7966 155.883 59.0585 155.39 59.4054 154.966C59.7524 154.543 60.1772 154.197 60.6544 153.949C61.1317 153.702 61.6516 153.558 62.1831 153.526C72.3555 152.909 98.6654 151.457 108.762 152.307C113.606 152.713 118.872 154.347 121.218 159.211C123.169 163.219 123.46 169.23 120.187 172.526C115.204 177.535 105.751 177.151 99.3297 177.39C87.3719 177.869 60.1279 176.686 60.121 176.577Z" stroke="#263238" stroke-linecap="round" stroke-linejoin="round"/>
<path d="M122.678 165.259C122.678 164.744 125.197 175.895 115.993 179.576C106.79 183.257 64.1969 182.095 64.1969 182.095V176.868C64.1969 176.868 94.3266 177.536 99.3436 177.391C104.361 177.246 122.138 178.995 122.678 165.259Z" fill="#263238"/>
<path d="M113.827 227.55C113.827 227.55 121.356 232.174 124.173 240.865" stroke="#263238" stroke-linecap="round" stroke-linejoin="round"/>
<path d="M58.6747 156.307C58.6747 156.307 95.5998 154.485 104.997 154.812C114.395 155.138 118.996 157.309 119.931 163.487C120.865 169.666 115.17 173.513 110.63 174.239C106.091 174.965 60.114 175.176 60.114 175.176" stroke="#263238" stroke-linecap="round" stroke-linejoin="round" stroke-dasharray="4 4"/>
<path d="M84.0504 231.151C84.0504 231.151 78.3345 210.322 67.8161 206.22C67.8161 206.22 65.7401 192.005 70.2242 191.221C74.7084 190.437 87.372 181.681 84.0642 170.755C80.7565 159.829 70.8263 176.236 64.2108 176.868C57.5952 177.5 50.3708 186.669 50.6683 194.553C50.9659 202.438 43.7483 217.27 45.5544 225.771C47.3606 234.273 58.4948 249.439 59.3944 257.331" fill="white"/>
<path d="M84.0504 231.151C84.0504 231.151 78.3345 210.322 67.8161 206.22C67.8161 206.22 65.7401 192.005 70.2242 191.221C74.7084 190.437 87.372 181.681 84.0642 170.755C80.7565 159.829 70.8263 176.236 64.2108 176.868C57.5952 177.5 50.3708 186.669 50.6683 194.553C50.9659 202.438 43.7483 217.27 45.5544 225.771C47.3606 234.273 58.4948 249.439 59.3944 257.331" stroke="#263238" stroke-linecap="round" stroke-linejoin="round"/>
<path d="M70.2035 173.666C70.2035 173.666 78.1269 175.176 82.4311 169.898C86.7354 164.62 81.7807 164.286 81.7807 164.286L70.2035 173.666Z" fill="white" stroke="#263238" stroke-linecap="round" stroke-linejoin="round"/>
<path d="M56.052 185.428C57.4984 185.532 58.897 186.014 60.121 186.829" stroke="#263238" stroke-linecap="round" stroke-linejoin="round"/>
<path d="M55.8098 188.447C57.2506 188.591 58.623 189.159 59.7681 190.088" stroke="#263238" stroke-linecap="round" stroke-linejoin="round"/>
<path d="M77.1996 216.347C77.1996 216.347 111.108 214.51 120.034 215.048" stroke="#263238" stroke-linecap="round" stroke-linejoin="round"/>
<path d="M111.779 212.332C111.779 212.332 120.311 211.606 125.619 212.332" stroke="#263238" stroke-linecap="round" stroke-linejoin="round"/>
<path d="M133.397 214.946H147.202" stroke="#263238" stroke-linecap="round" stroke-linejoin="round"/>
<path d="M141.749 135.391C141.749 135.391 202.389 129.707 226.755 132.952C226.755 132.952 233.329 145.635 231.896 210.634C204.511 214.317 176.958 216.466 149.354 217.074" stroke="#263238" stroke-linecap="round" stroke-linejoin="round" stroke-dasharray="4 4"/>
<g opacity="0.1">
<path d="M305.906 225.343C304.183 217.655 301.657 214.765 299.124 212.544C299.124 212.544 299.069 208.188 295.823 205.705C294.956 204.904 294.031 204.175 293.055 203.527C290.01 201.131 286.654 198.445 286.654 198.445C285.076 193.653 282.938 187.852 280.627 182.146L280.745 183.446C278.378 177.384 276.06 171.35 275.409 169.347V169.303C276.101 171.234 276.793 173.1 277.554 174.821L268.891 142.695C268.683 141.403 268.468 140.132 268.254 138.906C267.839 135.276 266.711 128.437 263.991 127.95C263.89 127.943 263.788 127.943 263.687 127.95C263.687 127.95 260.483 126.498 260.483 132.459C256.67 133.794 255.196 136.815 254.829 140.365C254.631 141.491 254.607 142.643 254.76 143.777C254.829 145.091 254.974 146.434 255.168 147.77L242.892 130.84L241.709 129.228L226.568 108.319L206.216 80.1503C205.459 79.1047 204.513 78.2258 203.432 77.5639C202.35 76.902 201.156 76.47 199.915 76.2927C198.675 76.1154 197.414 76.1962 196.203 76.5305C194.993 76.8648 193.857 77.446 192.861 78.2409L167.596 98.3729L157.735 106.228C150.171 110.359 152.143 118.519 154.24 121.416L198.3 182.262C198.07 182.232 197.839 182.22 197.608 182.226C197.608 182.226 196.348 179.111 193.234 179.605C192.571 179.637 191.929 179.861 191.38 180.251C190.877 180.528 190.451 180.936 190.141 181.435C189.796 181.872 189.486 182.338 189.214 182.829C187.629 185.674 189.096 192.637 191.387 201.138C191.532 201.69 191.677 202.22 191.816 202.714V202.794L192.404 204.921C194.646 213.081 198.839 229.104 199.614 236.959C199.67 237.685 199.704 238.462 199.718 239.188C199.767 248.234 195.94 263.378 197.587 269.636C197.801 270.457 198.023 271.241 198.244 272.018C199.469 276.199 200.562 280.156 202.486 284.084C204.825 288.875 207.614 293.471 210.223 298.11C215.011 306.633 219.966 315.055 225.087 323.375C227.447 327.194 230.208 330.678 232.879 334.265C234.104 335.913 236.775 338.389 237.238 340.501C237.238 340.501 260.926 342.556 274.184 333.72L272.939 313.944L281.831 260.329C284.371 256.285 292.211 248.386 293.775 245.889C294.584 244.647 295.373 243.413 296.142 242.208C301.989 236.48 304.916 232.044 306.203 226.882C306.231 226.897 306.141 226.309 305.906 225.343ZM223.904 237.053L223.786 236.821C226.205 237.97 228.768 238.753 231.398 239.144C228.637 238.81 225.516 238.346 223.904 237.053ZM233.896 239.456L235.169 239.551C234.743 239.549 234.318 239.518 233.896 239.456ZM223.655 236.509L222.063 233.198C219.848 226.534 214.845 210.823 214.825 210.758C213.845 206.231 212.535 201.789 210.908 197.472C212.085 197.907 213.347 198.029 214.58 197.826C215.813 197.624 216.979 197.103 217.973 196.31L230.083 186.662C231.336 187.453 232.616 188.165 233.868 188.789L245.21 198.089L236.214 236.879L223.655 236.509ZM269.562 147.167C270.503 151.799 271.991 158.464 273.963 164.918C272.048 159.132 270.572 153.197 269.548 147.167H269.562Z" fill="black"/>
<path d="M218.153 333.561L218.222 333.909C218.222 333.909 218.202 333.778 218.153 333.561Z" fill="black"/>
</g>
<path d="M260.192 148.59C260.884 148.111 271.029 142.317 276.108 159.69C281.187 177.064 287.146 206.626 287.146 206.626L275.077 209.087C275.077 209.087 263.894 202.844 253.874 187.206C253.874 187.206 239.827 183.387 233.709 174.312C228.173 166.065 245.252 135.783 245.252 135.783L260.192 148.59Z" fill="white"/>
<path d="M255.853 170.21C258.843 174.914 264.503 184.81 272.143 187.932" stroke="#263238" stroke-linecap="round" stroke-linejoin="round"/>
<path d="M247.397 175.271C248.781 175.859 252.241 177.949 253.874 178.029C253.874 178.029 260.926 192.673 272.558 197.428" stroke="#263238" stroke-linecap="round" stroke-linejoin="round"/>
<path d="M240.927 180.665C245.252 184.462 250.407 187.054 253.874 187.199C253.874 187.199 260.926 201.842 272.558 206.598" stroke="#263238" stroke-linecap="round" stroke-linejoin="round"/>
<path d="M204.529 74.5534L166.264 105.047C162.94 107.696 162.293 112.669 164.817 116.156L217.963 189.561C220.488 193.047 225.228 193.727 228.552 191.079L266.817 160.585C270.14 157.936 270.788 152.963 268.263 149.476L215.117 76.0712C212.593 72.5845 207.852 71.905 204.529 74.5534Z" fill="#263238"/>
<path d="M265.728 158.993L230.616 186.981C229.62 187.777 228.484 188.359 227.273 188.694C226.062 189.029 224.8 189.11 223.559 188.932C222.318 188.754 221.123 188.32 220.042 187.657C218.961 186.993 218.016 186.112 217.261 185.064L166.502 114.962C165.675 113.829 165.094 112.521 164.8 111.128C164.391 109.258 164.506 107.304 165.131 105.501C165.755 103.697 166.864 102.122 168.322 100.964L178.19 93.109L203.448 72.9697C204.445 72.1752 205.581 71.5944 206.792 71.2607C208.003 70.927 209.264 70.8469 210.505 71.0249C211.745 71.2028 212.94 71.6355 214.02 72.2981C215.101 72.9606 216.047 73.8402 216.804 74.8864L237.169 103.012L252.31 123.92L267.534 144.974C268.294 146.019 268.85 147.21 269.17 148.481C269.49 149.751 269.569 151.075 269.401 152.377C269.233 153.679 268.823 154.933 268.192 156.069C267.562 157.204 266.725 158.198 265.728 158.993Z" fill="#FDB704"/>
<path opacity="0.1" d="M237.142 103.012L178.169 93.1017L203.448 72.9697C204.445 72.1752 205.581 71.5944 206.792 71.2607C208.003 70.927 209.264 70.8469 210.505 71.0249C211.745 71.2028 212.94 71.6355 214.02 72.2981C215.101 72.9606 216.047 73.8402 216.804 74.8864L237.142 103.012Z" fill="black"/>
<path opacity="0.1" d="M265.728 158.993L230.616 186.98C229.62 187.777 228.484 188.359 227.273 188.694C226.062 189.029 224.8 189.109 223.559 188.931C222.318 188.753 221.123 188.32 220.042 187.656C218.961 186.993 218.016 186.112 217.26 185.064L166.502 114.961C165.675 113.829 165.094 112.521 164.8 111.128L253.473 125.597L267.534 145.018C269.055 147.124 269.719 149.777 269.38 152.396C269.042 155.015 267.729 157.387 265.728 158.993Z" fill="black"/>
<path d="M208.432 80.0873L202.232 85.0276C200.99 86.0172 200.748 87.8754 201.692 89.1781L209.197 99.5439C210.14 100.847 211.911 101.101 213.153 100.111L219.352 95.1707C220.594 94.1811 220.836 92.3229 219.893 91.0202L212.388 80.6544C211.444 79.3517 209.673 79.0978 208.432 80.0873Z" fill="white" stroke="#263238" stroke-linecap="round" stroke-linejoin="round"/>
<path d="M205.462 82.4443L216.167 97.7049" stroke="#263238" stroke-linecap="round" stroke-linejoin="round"/>
<path d="M205.462 94.3871L216.167 85.8711" stroke="#263238" stroke-linecap="round" stroke-linejoin="round"/>
<path d="M226.194 182.414L224.367 183.822L202.078 153.04L203.891 151.603L226.194 182.414Z" fill="#263238"/>
<path d="M229.287 180.011L227.461 181.434L205.144 150.601L206.943 149.163L229.287 180.011Z" fill="#263238"/>
<path d="M232.374 177.623L230.554 179.032L208.202 148.169L210.008 146.725L232.374 177.623Z" fill="#263238"/>
<path d="M235.467 175.22L233.64 176.628L211.586 146.172L213.385 144.728L235.467 175.22Z" fill="#263238"/>
<path d="M238.802 172.635L236.976 174.051L214.887 143.544L216.693 142.1L238.802 172.635Z" fill="#263238"/>
<path d="M238.802 136.742L236.976 138.15L214.887 107.644L216.693 106.206L238.802 136.742Z" fill="#263238"/>
<path d="M190.697 83.212L187.87 85.4648L250.112 171.432L252.939 169.18L190.697 83.212Z" fill="#263238"/>
<path d="M265.728 158.993L230.616 186.981C229.62 187.777 228.484 188.359 227.273 188.694C226.062 189.029 224.8 189.11 223.559 188.932C222.318 188.754 221.123 188.32 220.042 187.657C218.961 186.993 218.016 186.112 217.261 185.064L166.502 114.962C165.675 113.829 165.094 112.521 164.8 111.128C164.391 109.258 164.506 107.304 165.131 105.501C165.755 103.697 166.864 102.122 168.322 100.964L178.19 93.109L203.448 72.9697C204.445 72.1752 205.581 71.5944 206.792 71.2607C208.003 70.927 209.264 70.8469 210.505 71.0249C211.745 71.2028 212.94 71.6355 214.02 72.2981C215.101 72.9606 216.047 73.8402 216.804 74.8864L237.169 103.012L252.31 123.92L267.534 144.974C268.294 146.019 268.85 147.21 269.17 148.481C269.49 149.751 269.569 151.075 269.401 152.377C269.233 153.679 268.823 154.933 268.192 156.069C267.562 157.204 266.725 158.198 265.728 158.993V158.993Z" stroke="#263238" stroke-linecap="round" stroke-linejoin="round"/>
<path d="M237.266 340.494C237.266 340.494 278.136 355.74 290.502 322.532C290.502 322.532 271.16 297.848 281.72 277.68C288.363 264.975 306.736 236.93 306.736 236.93C306.736 236.93 314.41 229.285 316.798 221.604C316.798 221.604 315.483 213.044 309.698 207.251C309.698 207.251 309.635 202.895 306.39 200.412C303.144 197.929 297.193 193.152 297.193 193.152C297.193 193.152 287.408 168.526 285.955 164.076C284.502 159.625 281.582 151.211 280.122 141.918C278.661 132.625 277.312 122.621 274.212 122.65C274.212 122.65 271.015 121.198 271.015 127.158C271.015 127.158 264.302 130.788 265.292 138.47C266.282 146.151 267.195 150.122 266.932 154.442C266.669 158.761 267.991 173.76 271.299 178.465C271.299 178.465 272.406 199.519 274.067 205C274.122 205.167 274.17 205.32 274.219 205.458C275.963 210.097 258.538 227.964 249.106 232.799C249.106 232.799 248.117 234.73 244.456 234.2C240.795 233.67 234.602 233.423 233.536 230.57C232.47 227.717 225.377 205.458 225.377 205.458C225.377 205.458 219.641 176.926 208.181 176.933C208.181 176.933 206.444 172.577 201.953 174.958C197.462 177.34 200.403 190.32 202.389 197.421C204.375 204.521 209.406 223.186 210.223 231.775C211.039 240.364 206.403 257.57 208.147 264.336C209.891 271.102 211.828 275.669 217.392 286.748C222.955 297.827 235.28 330.86 237.266 340.494Z" fill="white"/>
<path d="M237.266 340.493C237.266 340.493 228.519 305.95 215.662 283.611C202.805 261.272 210.368 253.373 210.368 234.78C210.368 216.187 195.926 184.534 199.822 177.557C203.718 170.58 209.033 176.163 211.254 182.675C213.475 189.187 210.368 192.912 204.14 193.376" stroke="#263238" stroke-linecap="round" stroke-linejoin="round"/>
<path d="M208.181 176.962C208.181 176.962 215.648 176.483 220.236 189.007C224.824 201.53 232.173 233.293 239.827 242.956" stroke="#263238" stroke-linecap="round" stroke-linejoin="round"/>
<path d="M233.785 231.224C233.827 231.325 244.477 237.554 261.002 232.095" stroke="#263238" stroke-linecap="round" stroke-linejoin="round"/>
<path d="M209.6 213.72C210.43 212.654 211.513 211.836 212.74 211.348C213.967 210.86 215.294 210.719 216.589 210.939" stroke="#263238" stroke-linecap="round" stroke-linejoin="round"/>
<path d="M211.019 217.662C211.736 216.761 212.681 216.091 213.744 215.728C214.807 215.365 215.947 215.323 217.032 215.607" stroke="#263238" stroke-linecap="round" stroke-linejoin="round"/>
<path d="M271.015 127.137C260.151 130.934 268.247 148.147 266.932 154.427C265.617 160.707 269.008 172.73 271.617 179.249C271.617 186.894 274.212 205.443 274.212 205.443C272.607 211.345 259.209 228.74 246.193 234.185" stroke="#263238" stroke-linecap="round" stroke-linejoin="round"/>
<path d="M278.987 135.805C278.987 135.805 278.177 122.628 274.212 122.628C270.247 122.628 270.489 131.507 272.136 138.099C273.783 144.691 280.191 143.747 278.987 135.805Z" stroke="#263238" stroke-linecap="round" stroke-linejoin="round"/>
<path d="M278.987 135.805C278.987 135.805 282.364 156.517 288.087 169.527" stroke="#263238" stroke-linecap="round" stroke-linejoin="round"/>
<path d="M294.834 218.039C297.602 213.335 298.826 208.884 299.851 203.221C299.594 199.671 295.699 188.084 291.173 176.86" stroke="#263238" stroke-linecap="round" stroke-linejoin="round"/>
<path d="M297.56 194.248C302.051 197.791 309.864 200.513 308.964 206.626C307.972 212.742 305.932 218.618 302.944 223.97" stroke="#263238" stroke-linecap="round" stroke-linejoin="round"/>
<path d="M291.498 324.078C291.498 324.078 275.852 301.289 278.987 285.549C281.291 273.97 296.107 253.722 306.736 236.951C312.59 231.223 315.518 226.787 316.798 221.625C314.922 211.933 311.878 209.109 308.951 206.626" stroke="#263238" stroke-linecap="round" stroke-linejoin="round"/>
<path d="M295.671 198.009C293.928 197.495 292.103 197.362 290.309 197.618C288.516 197.874 286.791 198.514 285.242 199.497" stroke="#263238" stroke-linecap="round" stroke-linejoin="round"/>
<path d="M294.792 201.908C292.667 201.57 290.494 201.97 288.606 203.047" stroke="#263238" stroke-linecap="round" stroke-linejoin="round"/>
</svg>
